<?xml version="1.0" encoding="utf-8"?>
<!-- Generator: Adobe Illustrator 20.1.0, SVG Export Plug-In . SVG Version: 6.00 Build 0)  -->
<svg version="1.1" id="Camada_1" xmlns="http://www.w3.org/2000/svg" xmlns:xlink="http://www.w3.org/1999/xlink" x="0px" y="0px"
	 viewBox="0 0 870.5 225.5" style="enable-background:new 0 0 870.5 225.5;" xml:space="preserve">
<style type="text/css">
	.st0{fill:#FCFCFC;}
</style>
<path class="st0" d="M46.2,141.6L61,117.3c1.9-3.1,4.4-5.6,7.6-7.6s6.3-2.9,9.4-2.9h51.6l-6.4,10.5H73.1l-14.8,24.3h50l-6.4,10.5
	H50.3c-3.1,0-5-1-5.8-2.9S44.3,144.7,46.2,141.6L46.2,141.6L46.2,141.6z M81.5,83.7l6.4-10.5H150l-6.4,10.5
	C143.6,83.7,81.5,83.7,81.5,83.7z"/>
<path class="st0" d="M175.2,123.1c-0.2-1.8-0.4-3-0.6-3.8c-0.2-0.8-1-1.2-2.5-1.2s-2.8,0.4-4,1.2c-1.2,0.8-2.9,2-5.1,3.8L56.7,206.8
	H42.5l120.2-93.6l-4.1-39.9h14.9l2.3,28.9c0.2,1.8,0.4,3,0.6,3.8c0.2,0.8,1,1.2,2.5,1.2s2.8-0.4,3.9-1.2c1.1-0.8,2.9-2,5.2-3.8
	l92-83.5H294l-105.8,93.6l4.2,39.9h-14.9L175.2,123.1L175.2,123.1z"/>
<path class="st0" d="M245.2,83.7l6.4-10.5h32.8c3.8,0,7.2,0.3,10.3,1s5.4,1.8,7.1,3.5s2.4,3.9,2.3,6.7c-0.1,2.8-1.5,6.4-4.1,10.7
	l-2.8,4.6c-2.6,4.3-5.6,7.8-8.9,10.7s-6.8,5.1-10.5,6.7c-3.7,1.7-7.4,2.8-11.3,3.5s-7.7,1-11.5,1h-20.7l-18.6,30.5h-12.1l16.2-26.6
	c2.9-4.8,6.7-8.4,11.2-10.8c4.5-2.4,9.3-3.6,14.2-3.6h18.1c5.4,0,9.7-0.9,12.9-2.7s5.9-4.6,8.2-8.4l3.1-5.1c2.3-3.8,3-6.6,2-8.4
	c-1-1.8-4.1-2.7-9.5-2.7L245.2,83.7L245.2,83.7z"/>
<path class="st0" d="M462.6,83.7c-0.2,2.6-1.6,5.9-4,9.9l-1.7,2.8c-4.9,8-10.6,13.4-17.2,16.2c-6.6,2.8-14.3,4.2-23,4.2h-6.5
	l12.7,35.2H407L394,116.9h-4.8l-21.5,35.2h-12.1l24-39.3c1.1-1.9,2.7-3.4,4.8-4.5c2-1.1,3.9-1.7,5.6-1.7h36.1
	c4.5,0,8.2-0.7,10.8-2.1c2.6-1.4,5.1-4,7.4-7.8l2-3.3c2.3-3.8,3-6.3,2-7.7c-1-1.3-3.7-2-8.3-2H332.5l-14,23h51.1l-6.4,10.5h-51.1
	l-14.8,24.3h51.1l-6.4,10.5h-63.2l48.1-78.8h116.9c3.8,0,7.2,0.3,10.2,0.9c3,0.6,5.2,1.7,6.7,3.3C462.1,79,462.8,81.1,462.6,83.7
	L462.6,83.7z"/>
<polygon class="st0" points="438.7,152.1 486.8,73.2 498.9,73.2 450.8,152.1 "/>
<path class="st0" d="M477.3,141.6l14.8-24.3c1.9-3.1,4.4-5.6,7.5-7.6c3.1-2,6.3-2.9,9.4-2.9h51.5l-6.4,10.5h-50l-14.8,24.3h50
	l-6.4,10.5h-51.5c-3.1,0-5-1-5.8-2.9S475.5,144.7,477.3,141.6L477.3,141.6L477.3,141.6z M512.5,83.7l6.4-10.5h62l-6.4,10.5H512.5z"
	/>
<path class="st0" d="M549.4,152.1l48.1-78.8h50.3c7.1,0,11,1.9,11.6,5.8c0.7,3.8-1.3,9.5-5.7,16.8l-34.3,56.3h-12.1l35.1-57.5
	c2.5-4.1,3.4-7,2.8-8.5c-0.7-1.5-2.9-2.3-6.6-2.3h-35.3l-41.7,68.3H549.4L549.4,152.1z"/>
<path class="st0" d="M710.5,141.6l-6.4,10.5h-34.8c-6.2,0-11-0.8-14.4-2.4c-3.4-1.6-5.6-3.9-6.5-6.9c-0.9-3-0.8-6.6,0.5-10.9
	c1.3-4.2,3.5-9,6.7-14.3l6-9.9c3.2-5.3,6.8-10,10.6-14.3c3.9-4.2,8.1-7.9,12.7-10.9c4.6-3,9.6-5.3,15-6.9s11.2-2.4,17.3-2.4h34.3
	l-6.4,10.5h-35.8c-7.3,0-13.5,1.7-18.6,5.2c-5.1,3.5-9.8,8.8-14.2,15.8l-9.6,15.8c-4.3,7.1-6,12.4-5.1,15.8c0.9,3.5,5,5.2,12.3,5.2
	L710.5,141.6L710.5,141.6z"/>
<path class="st0" d="M724.1,141.6l14.8-24.3c1.9-3.1,4.4-5.6,7.6-7.6s6.3-2.9,9.4-2.9h51.6l-6.4,10.5h-50l-14.8,24.3h50l-6.4,10.5
	h-51.6c-3.1,0-5-1-5.8-2.9S722.3,144.7,724.1,141.6L724.1,141.6L724.1,141.6z M759.4,83.7l6.4-10.5h62.1l-6.4,10.5H759.4z"/>
<path class="st0" d="M71.8,39.2H60l-5.4,11.9h11.8c1.1,0,2-0.1,2.7-0.2c0.7-0.1,1.4-0.4,1.9-0.8c0.5-0.4,1-0.8,1.4-1.4
	c0.4-0.6,0.8-1.3,1.2-2.2l1.2-2.7c0.4-0.9,0.7-1.6,0.8-2.2c0.1-0.6,0.1-1.1-0.1-1.4s-0.6-0.6-1.2-0.7C73.7,39.3,72.9,39.2,71.8,39.2
	L71.8,39.2L71.8,39.2z M72.8,37c2.3,0,4.2,0.2,5.7,0.4c1.5,0.3,2.6,0.7,3.4,1.3c0.7,0.6,1.1,1.3,1.2,2.2s-0.2,1.9-0.7,3.1l-1,2.2
	c-0.5,1.2-1.2,2.2-2.1,3.1c-0.8,0.9-1.9,1.6-3.1,2.2c-1.3,0.6-2.8,1-4.5,1.3c-1.8,0.3-3.8,0.4-6.2,0.4h-19L53.9,37L72.8,37L72.8,37z
	"/>
<polygon class="st0" points="81.3,53.3 88.7,37 116.5,37 115.5,39.2 94.8,39.2 92.7,43.9 113.3,43.9 112.4,46.1 91.7,46.1 
	89.4,51.1 110.1,51.1 109.1,53.3 "/>
<path class="st0" d="M133,39.8l-7.3,6.8h10.9l-1.2-6.7c0-0.2-0.1-0.4-0.3-0.5c-0.1-0.1-0.4-0.2-0.6-0.2s-0.5,0-0.7,0.2
	C133.5,39.4,133.3,39.5,133,39.8C133,39.8,133,39.8,133,39.8z M137.8,53.3l-0.8-4.4h-13.9l-4.8,4.4H111l14.2-12.7
	c1.3-1.2,2.8-2.1,4.4-2.8c1.6-0.7,3.6-1,6-1s4.1,0.3,5.1,1c1,0.7,1.7,1.6,1.9,2.7l2.6,12.8C145.2,53.3,137.8,53.3,137.8,53.3z"/>
<polygon class="st0" points="147.5,53.3 154.9,37 162.1,37 155.7,51.1 172.6,51.1 171.7,53.3 "/>
<polygon class="st0" points="174.5,53.3 181.9,37 209.7,37 208.7,39.2 188.1,39.2 185.9,43.9 206.6,43.9 205.6,46.1 184.9,46.1 
	182.6,51.1 203.3,51.1 202.3,53.3 "/>
<path class="st0" d="M219.4,39.2l-6.4,14.1h-7.2l7.4-16.3H233c1.9,0,3.5,0.1,4.7,0.2c1.2,0.1,2.2,0.4,2.8,0.7c0.6,0.3,1,0.8,1.1,1.3
	c0.1,0.6-0.1,1.3-0.4,2.1l-0.4,0.8c-0.3,0.6-0.7,1.2-1.2,1.7c-0.5,0.5-1.1,0.9-1.8,1.2c-0.8,0.3-1.7,0.6-2.7,0.8s-2.4,0.3-3.8,0.3
	h-2.3c-0.2,0-0.3,0-0.5,0.1c-0.1,0.1-0.2,0.2-0.3,0.3c-0.1,0.1-0.1,0.2,0,0.3l0.2,0.3l7.4,6.3h-9.5l-6.8-6.5
	c-0.4-0.4-0.6-0.7-0.7-0.9c-0.1-0.2-0.1-0.5,0-0.8c0.1-0.3,0.4-0.6,0.7-0.7s0.8-0.2,1.3-0.2h7.8c1.6,0,2.7-0.1,3.4-0.4
	c0.7-0.3,1.2-0.8,1.6-1.7l0.4-0.8c0.2-0.4,0.3-0.7,0.3-1c0-0.3-0.1-0.5-0.3-0.6s-0.6-0.3-1.1-0.3s-1.2-0.1-2-0.1L219.4,39.2
	L219.4,39.2z"/>
<path class="st0" d="M209.1,177.6h-14l-5.7,12.5h14.2c1.6,0,3-0.1,4.1-0.2s2.1-0.3,2.9-0.5c0.8-0.3,1.4-0.6,1.9-1
	c0.5-0.4,0.8-0.9,1.1-1.4l0.3-0.6c0.1-0.3,0.2-0.6,0.2-0.8c0-0.3-0.1-0.5-0.3-0.7c-0.2-0.2-0.5-0.4-1-0.6c-0.4-0.2-1-0.3-1.8-0.5
	c0.8-0.1,1.4-0.3,2-0.4c0.6-0.2,1-0.4,1.4-0.6c0.4-0.2,0.6-0.4,0.9-0.7s0.4-0.5,0.5-0.8l0.3-0.6c0.3-0.6,0.4-1.1,0.3-1.5
	c-0.1-0.4-0.4-0.7-0.9-0.9s-1.3-0.4-2.3-0.5S210.6,177.6,209.1,177.6L209.1,177.6L209.1,177.6z M198.1,183l1.7-3.8h9
	c0.6,0,1.1,0.1,1.2,0.4c0.2,0.2,0.1,0.6-0.1,1.1l-0.4,0.8c-0.3,0.6-0.6,0.9-1,1.2s-0.9,0.4-1.6,0.4H198.1z M195.6,188.4l1.7-3.7h9.4
	c0.8,0,1.2,0.1,1.4,0.4s0.1,0.6-0.1,1.1l-0.4,0.9c-0.2,0.5-0.5,0.8-0.9,1.1c-0.4,0.2-0.9,0.4-1.7,0.4L195.6,188.4L195.6,188.4z"/>
<path class="st0" d="M242.2,177.6h-5.3l-10.7,10.3l-1.6-10.3h-5.8l2.1,10.9h-6.8l-0.8,1.7H224c0.8,0,1.6,0,2.3-0.1
	c0.7-0.1,1.3-0.2,1.9-0.4c0.6-0.2,1.1-0.4,1.7-0.8s1.1-0.8,1.7-1.3L242.2,177.6L242.2,177.6z"/>
<path class="st0" d="M296.8,168.9h-26.9c-3.3,0-6,0.5-8.3,1.6s-3.9,2.8-5,5.2c-1,2.2-1,3.8-0.1,4.9c0.9,1.1,3,1.7,6.4,1.7h17
	c1.2,0,1.9,0.2,2.3,0.6s0.3,1,0,1.8c-0.4,0.9-0.9,1.5-1.6,1.9s-1.6,0.6-2.7,0.6h-25.8l-1.3,2.8h26.8c3.5,0,6.3-0.6,8.6-1.7
	s3.9-2.9,5-5.4c0.9-1.9,1-3.5,0.2-4.8c-0.7-1.2-2.6-1.9-5.6-1.9h-18.2c-1,0-1.6-0.2-2-0.6c-0.4-0.4-0.4-1,0-1.7
	c0.4-0.9,0.9-1.5,1.6-1.8c0.7-0.4,1.6-0.6,2.6-0.6h25.7L296.8,168.9L296.8,168.9z"/>
<polygon class="st0" points="311.2,168.9 301.9,168.9 292.2,190.1 301.6,190.1 "/>
<path class="st0" d="M360.2,168.5c-3,0-5.5,0.3-7.4,0.9c-2,0.6-3.5,1.6-4.5,2.9l-11.1,13.8c-0.2,0.2-0.4,0.4-0.6,0.6
	c-0.3,0.2-0.6,0.3-0.9,0.3s-0.6-0.1-0.7-0.2c-0.1-0.2-0.2-0.4-0.1-0.6l1.5-13.9c0.1-1.3-0.6-2.3-2.2-2.9s-3.9-0.9-6.8-0.9
	c-3.5,0-6.2,0.4-8.2,1.2s-3.4,1.9-4,3.4l-7.8,17h8.8l7.7-17c0.2-0.5,0.5-0.9,0.9-1.1c0.4-0.2,0.8-0.3,1.4-0.3s0.9,0.1,1,0.4
	c0.1,0.3,0.2,0.6,0.1,0.9l-1.1,13.7c-0.1,1.2,0.5,2.1,1.8,2.8c1.3,0.7,3.3,1,5.8,1s4.9-0.3,6.9-1c2-0.7,3.5-1.6,4.5-2.8l11.2-13.6
	c0.4-0.5,0.7-0.8,1-1c0.3-0.2,0.7-0.3,1.3-0.3s0.9,0.1,1,0.4c0.1,0.2,0,0.6-0.2,1.1l-7.7,16.9h8.8l7.8-17c0.7-1.5,0.3-2.6-1-3.4
	C365.7,168.9,363.4,168.5,360.2,168.5L360.2,168.5L360.2,168.5z"/>
<path class="st0" d="M397.5,168.9h-21.3l-1.3,2.8h21.6c1.2,0,2,0.2,2.4,0.6c0.4,0.4,0.3,1.1-0.1,2.1l-0.9,1.9
	c-0.5,1.1-1.1,1.8-1.8,2.2s-1.7,0.6-2.9,0.6h-14.5c-2.6,0-4.6,0.3-5.9,0.9s-2.2,1.5-2.8,2.8l-3.3,7.3h9.3l3.8-8.3h12
	c2.6,0,4.9-0.1,6.7-0.3s3.4-0.6,4.6-1s2.2-1,2.9-1.8c0.7-0.7,1.3-1.6,1.8-2.6l0.6-1.3c0.5-1.1,0.8-2.1,0.7-2.9
	c-0.1-0.8-0.5-1.4-1.3-1.8c-0.8-0.4-2.1-0.8-3.7-0.9S400.1,168.9,397.5,168.9L397.5,168.9L397.5,168.9z"/>
<path class="st0" d="M424.1,168.9h-9.3l-5.5,12c-0.7,1.6-1,2.9-1,4.1c0.1,1.2,0.6,2.1,1.5,2.9s2.4,1.3,4.4,1.7
	c2,0.4,4.4,0.6,7.4,0.6h17.7l1.3-2.8h-18.2c-1.4,0-2.5-0.1-3.3-0.3c-0.8-0.2-1.3-0.5-1.6-1c-0.3-0.4-0.3-1.1-0.1-1.8
	c0.2-0.8,0.5-1.7,1.1-2.9L424.1,168.9L424.1,168.9z"/>
<polygon class="st0" points="488.7,168.9 452.5,168.9 442.8,190.1 479,190.1 480.3,187.3 453.4,187.3 456.4,180.7 483.3,180.7 
	484.6,177.9 457.7,177.9 460.5,171.7 487.4,171.7 "/>
<path class="st0" d="M529.7,168.9h-24.7l-9.6,21.2h24.7c3.1,0,5.8-0.2,8.1-0.6s4.3-0.9,5.9-1.7c1.6-0.8,3-1.7,4.1-2.9
	c1.1-1.2,2-2.5,2.7-4.1l1.3-2.8c0.7-1.6,1-2.9,1-4.1c-0.1-1.2-0.6-2.1-1.5-2.9c-1-0.8-2.4-1.3-4.4-1.7
	C535.2,169.1,532.8,168.9,529.7,168.9L529.7,168.9L529.7,168.9z M506,187.3l7.1-15.5h15.3c1.4,0,2.5,0.1,3.3,0.3s1.3,0.5,1.6,1
	c0.3,0.4,0.3,1.1,0.1,1.8s-0.5,1.7-1.1,2.9l-1.6,3.5c-0.5,1.2-1.1,2.1-1.6,2.9s-1.1,1.4-1.8,1.9s-1.5,0.8-2.5,1
	c-1,0.2-2.2,0.3-3.6,0.3L506,187.3L506,187.3z"/>
<polygon class="st0" points="586.7,168.9 550.4,168.9 540.8,190.1 577,190.1 578.3,187.3 551.4,187.3 554.4,180.7 581.3,180.7 
	582.5,177.9 555.7,177.9 558.5,171.7 585.4,171.7 "/>
<path class="st0" d="M611.5,168.5c-3,0-5.6,0.4-7.8,1.3s-4.1,2.1-5.8,3.6l-18.5,16.6h9.6l6.2-5.7h18.1l1,5.7h9.8l-3.4-16.7
	c-0.3-1.5-1.1-2.6-2.5-3.5C616.8,169,614.6,168.5,611.5,168.5L611.5,168.5L611.5,168.5z M598.6,181.3l9.5-8.8c0.3-0.3,0.7-0.5,1-0.6
	c0.3-0.1,0.7-0.2,1-0.2s0.6,0.1,0.8,0.2s0.3,0.4,0.4,0.7l1.5,8.8L598.6,181.3L598.6,181.3z"/>
<path class="st0" d="M644,168.9h-9.3l-5.5,12c-0.7,1.6-1,2.9-1,4.1c0.1,1.2,0.6,2.1,1.5,2.9s2.4,1.3,4.4,1.7c2,0.4,4.4,0.6,7.4,0.6
	h17.7l1.3-2.8h-18.2c-1.4,0-2.5-0.1-3.3-0.3c-0.8-0.2-1.3-0.5-1.6-1c-0.3-0.4-0.3-1.1-0.1-1.8c0.2-0.8,0.5-1.7,1.1-2.9L644,168.9
	L644,168.9z"/>
<polygon class="st0" points="702.9,168.9 672.3,168.9 662.7,190.1 698.9,190.1 700.2,187.3 673.3,187.3 676.3,180.7 703.2,180.7 
	704.4,177.9 677.5,177.9 680.4,171.7 707.3,171.7 701.6,171.7 "/>
<path class="st0" d="M725,168.9h-22.2l-1.3,2.8h20.8c1.1,0,2,0.1,2.6,0.1c0.7,0.1,1.1,0.2,1.4,0.4c0.3,0.2,0.4,0.5,0.4,0.8
	c0,0.4-0.1,0.8-0.4,1.3l-0.5,1.1c-0.5,1.1-1.2,1.8-2,2.2s-2.3,0.5-4.4,0.5h-11.3c-0.6,0-1.2,0.1-1.6,0.3c-0.5,0.2-0.8,0.5-1,0.9
	c-0.2,0.4-0.2,0.7-0.1,1c0.1,0.3,0.5,0.7,1,1.1l9.7,8.5h12.4l-9.6-8.2c-0.1-0.1-0.2-0.2-0.3-0.3c-0.1-0.1-0.1-0.2,0-0.4
	c0.1-0.2,0.2-0.3,0.4-0.4c0.2-0.1,0.4-0.1,0.6-0.1h3.2c1.9,0,3.6-0.1,5-0.3s2.6-0.5,3.6-1c1-0.4,1.8-1,2.4-1.6s1.1-1.4,1.5-2.2
	l0.5-1c0.5-1.1,0.7-2,0.6-2.7s-0.6-1.3-1.4-1.7c-0.8-0.4-2.1-0.7-3.7-0.9S727.6,168.9,725,168.9L725,168.9L725,168.9z"/>
<path class="st0" d="M777.6,168.9h-26.9c-3.3,0-6,0.5-8.3,1.6s-3.9,2.8-5,5.2c-1,2.2-1,3.8-0.1,4.9c0.9,1.1,3,1.7,6.4,1.7h17
	c1.2,0,1.9,0.2,2.3,0.6s0.3,1,0,1.8c-0.4,0.9-0.9,1.5-1.6,1.9s-1.6,0.6-2.7,0.6h-25.8l-1.3,2.8h26.8c3.5,0,6.3-0.6,8.6-1.7
	s3.9-2.9,5-5.4c0.9-1.9,1-3.5,0.2-4.8c-0.7-1.2-2.6-1.9-5.6-1.9h-18.2c-1,0-1.6-0.2-2-0.6c-0.3-0.4-0.4-1,0-1.7
	c0.4-0.9,0.9-1.5,1.6-1.8c0.7-0.4,1.6-0.6,2.6-0.6h25.7L777.6,168.9L777.6,168.9z"/>
</svg>
