<?xml version="1.0" encoding="UTF-8"?><svg id="Camada_1" xmlns="http://www.w3.org/2000/svg" viewBox="0 0 870.45 225.46"><path d="M46.21,141.57l14.81-24.29c1.88-3.08,4.4-5.61,7.56-7.57,3.16-1.96,6.28-2.94,9.37-2.94h51.62l-6.41,10.52h-50.05l-14.81,24.29h50.05l-6.41,10.51h-51.62c-3.09,0-5.01-.98-5.78-2.94-.77-1.96-.21-4.49,1.67-7.57h0ZM81.46,83.74l6.41-10.51h62.14l-6.41,10.51h-62.14Z"/><path d="M175.24,123.06c-.19-1.75-.39-3.01-.58-3.78-.2-.77-1.03-1.16-2.5-1.16s-2.79.39-3.96,1.16c-1.17.77-2.89,2.03-5.15,3.78l-106.33,83.73h-14.19l120.24-93.61-4.14-39.95h14.93l2.25,28.91c.19,1.75.38,3.02.58,3.79.19.77,1.03,1.16,2.5,1.16s2.77-.38,3.91-1.16c1.13-.77,2.87-2.03,5.2-3.79l91.95-83.47h14.09l-105.78,93.56,4.2,39.85h-14.93l-2.29-29.02Z"/><path d="M245.16,83.74l6.41-10.51h32.8c3.78,0,7.21.33,10.27,1,3.06.67,5.42,1.82,7.08,3.47s2.41,3.89,2.26,6.73c-.15,2.84-1.53,6.4-4.14,10.67l-2.82,4.63c-2.61,4.28-5.56,7.83-8.87,10.67s-6.8,5.08-10.46,6.73c-3.67,1.65-7.44,2.8-11.32,3.47-3.88.67-7.71,1-11.49,1h-20.71l-18.59,30.49h-12.09l16.21-26.6c2.95-4.84,6.69-8.45,11.23-10.83,4.54-2.38,9.26-3.58,14.17-3.58h18.08c5.4,0,9.68-.91,12.86-2.73,3.18-1.82,5.92-4.63,8.23-8.41l3.08-5.05c2.31-3.78,2.98-6.59,2.03-8.41-.96-1.82-4.13-2.73-9.53-2.73h-34.7Z"/><path d="M462.57,83.68c-.23,2.64-1.57,5.94-4,9.94l-1.73,2.84c-4.87,8-10.6,13.4-17.19,16.2-6.58,2.82-14.25,4.21-23.01,4.21h-6.52l12.7,35.21h-15.87l-12.91-35.21h-4.84l-21.48,35.21h-12.08l23.96-39.32c1.15-1.88,2.74-3.4,4.76-4.51,2-1.13,3.88-1.69,5.65-1.69h36.06c4.54,0,8.16-.7,10.8-2.1,2.64-1.4,5.11-4,7.42-7.79l1.98-3.26c2.31-3.79,2.97-6.33,2-7.67-.97-1.32-3.73-2-8.29-2h-107.45l-14.04,23.03h51.09l-6.41,10.51h-51.09l-14.82,24.29h51.11l-6.41,10.51h-63.19l48.06-78.84h116.92c3.84,0,7.24.31,10.19.93,2.95.64,5.17,1.73,6.68,3.26,1.51,1.55,2.16,3.63,1.92,6.25Z"/><polygon points="438.69 152.08 486.76 73.23 498.85 73.23 450.79 152.08 438.69 152.08"/><path d="M477.34,141.57l14.78-24.29c1.88-3.08,4.39-5.61,7.55-7.57,3.15-1.96,6.27-2.94,9.35-2.94h51.54l-6.4,10.52h-49.96l-14.78,24.29h49.96l-6.4,10.51h-51.54c-3.08,0-5-.98-5.77-2.94-.77-1.96-.21-4.49,1.67-7.57h0ZM512.53,83.74l6.4-10.51h62.03l-6.4,10.51h-62.03Z"/><path d="M549.4,152.08l48.07-78.85h50.26c7.08,0,10.95,1.93,11.62,5.78.66,3.85-1.25,9.46-5.73,16.82l-34.29,56.25h-12.09l35.06-57.51c2.52-4.14,3.44-6.97,2.77-8.52-.67-1.54-2.87-2.31-6.58-2.31h-35.33l-41.66,68.34h-12.09Z"/><path d="M710.47,141.57l-6.41,10.51h-34.8c-6.17,0-10.97-.8-14.4-2.42-3.43-1.61-5.62-3.92-6.55-6.94-.93-3.01-.75-6.64.54-10.88,1.29-4.24,3.53-8.99,6.74-14.25l6.02-9.88c3.2-5.26,6.75-10,10.63-14.25,3.88-4.24,8.12-7.87,12.73-10.88,4.6-3.01,9.61-5.33,15.01-6.94,5.4-1.61,11.18-2.42,17.35-2.42h34.28l-6.41,10.51h-35.85c-7.29,0-13.5,1.74-18.63,5.2-5.13,3.47-9.85,8.75-14.17,15.82l-9.61,15.77c-4.31,7.08-6.02,12.35-5.12,15.82.9,3.47,4.99,5.2,12.28,5.2h36.38Z"/><path d="M724.14,141.57l14.81-24.29c1.88-3.08,4.4-5.61,7.56-7.57,3.16-1.96,6.28-2.94,9.36-2.94h51.62l-6.41,10.52h-50.05l-14.8,24.29h50.05l-6.41,10.51h-51.62c-3.09,0-5.01-.98-5.78-2.94-.77-1.96-.21-4.49,1.67-7.57h0ZM759.39,83.74l6.41-10.51h62.14l-6.41,10.51h-62.14Z"/><path d="M71.8,39.19h-11.79l-5.43,11.94h11.79c1.09,0,2-.07,2.73-.22.74-.14,1.37-.39,1.91-.75.53-.36,1-.83,1.4-1.42.4-.59.8-1.34,1.21-2.24l1.24-2.71c.41-.9.68-1.64.82-2.24.14-.59.1-1.06-.11-1.41-.21-.35-.62-.59-1.23-.74-.61-.14-1.45-.22-2.54-.22h0ZM72.79,37.02c2.31,0,4.22.15,5.72.43,1.5.29,2.62.72,3.36,1.3.74.58,1.14,1.31,1.19,2.2.05.89-.2,1.93-.73,3.11l-.99,2.17c-.54,1.19-1.23,2.23-2.06,3.11-.83.89-1.87,1.62-3.13,2.2-1.25.58-2.77,1.01-4.53,1.3-1.77.29-3.84.43-6.23.43h-18.95l7.41-16.28h18.95Z"/><polygon points="81.27 53.3 88.68 37.02 116.51 37.02 115.52 39.18 94.85 39.18 92.69 43.94 113.35 43.94 112.36 46.11 91.7 46.11 89.42 51.13 110.08 51.13 109.1 53.3 81.27 53.3"/><path d="M133.01,39.77l-7.33,6.75h10.88l-1.17-6.73c-.04-.23-.13-.4-.29-.51-.15-.11-.35-.16-.6-.16s-.49.05-.74.15c-.25.1-.5.27-.75.5h0ZM137.75,53.3l-.76-4.38h-13.89l-4.75,4.38h-7.4l14.24-12.74c1.32-1.19,2.81-2.12,4.45-2.8,1.65-.68,3.64-1.02,5.97-1.02s4.06.34,5.1,1.02c1.04.68,1.68,1.58,1.9,2.71l2.63,12.83h-7.49Z"/><polygon points="147.52 53.3 154.93 37.02 162.09 37.02 155.67 51.13 172.64 51.13 171.66 53.3 147.52 53.3"/><polygon points="174.48 53.3 181.89 37.02 209.72 37.02 208.73 39.18 188.06 39.18 185.9 43.94 206.57 43.94 205.58 46.11 184.91 46.11 182.63 51.13 203.29 51.13 202.31 53.3 174.48 53.3"/><path d="M219.36,39.19l-6.42,14.11h-7.16l7.41-16.28h19.84c1.91,0,3.49.07,4.72.21,1.24.14,2.18.37,2.82.7.64.33,1,.77,1.09,1.32.09.56-.06,1.25-.43,2.07l-.36.78c-.29.64-.68,1.2-1.16,1.69-.48.49-1.1.9-1.84,1.24-.75.33-1.66.58-2.74.75-1.08.17-2.35.25-3.81.25h-2.26c-.17,0-.33.03-.46.1-.13.06-.23.17-.3.31-.06.13-.06.23-.01.31l.23.25,7.4,6.3h-9.53l-6.76-6.51c-.37-.36-.61-.65-.72-.88-.11-.22-.1-.48.04-.77.14-.32.39-.56.74-.72.35-.16.77-.24,1.26-.24h7.84c1.58,0,2.7-.14,3.36-.41.66-.28,1.19-.84,1.57-1.69l.37-.8c.18-.39.27-.72.29-.99.01-.27-.09-.48-.3-.64s-.58-.28-1.08-.35-1.17-.11-2.01-.11h-11.61Z"/><path d="M209.08,177.56h-14.02l-5.7,12.52h14.18c1.61,0,2.99-.06,4.14-.17,1.15-.11,2.1-.29,2.87-.53.77-.25,1.38-.57,1.85-.96.46-.39.82-.87,1.08-1.43l.28-.62c.13-.29.19-.57.18-.84-.01-.27-.13-.51-.34-.74-.21-.23-.54-.43-.99-.62-.44-.18-1.03-.34-1.76-.48.77-.11,1.44-.25,1.99-.43.55-.17,1.01-.37,1.37-.58.37-.21.65-.44.87-.7.22-.26.39-.52.52-.8l.26-.58c.26-.58.35-1.07.25-1.46-.1-.4-.41-.71-.94-.94-.53-.23-1.29-.4-2.29-.5-1-.1-2.26-.15-3.79-.15h0ZM198.09,183l1.72-3.77h9.03c.65,0,1.05.12,1.22.37.17.24.15.59-.06,1.05l-.36.78c-.25.55-.57.94-.96,1.19-.39.25-.92.38-1.59.38h-9ZM195.62,188.41l1.7-3.74h9.42c.75,0,1.2.12,1.36.37.16.25.13.62-.09,1.1l-.39.85c-.22.48-.52.84-.9,1.07-.38.23-.94.35-1.69.35h-9.42Z"/><path d="M242.22,177.56h-5.31l-10.68,10.25-1.65-10.25h-5.76l2.12,10.85h-6.76l-.76,1.67h10.6c.84,0,1.59-.03,2.27-.1.68-.07,1.3-.19,1.89-.38.58-.19,1.15-.45,1.69-.79s1.1-.77,1.66-1.29l10.69-9.95Z"/><path d="M296.8,168.89h-26.87c-3.26,0-6.01.54-8.25,1.61-2.24,1.07-3.91,2.81-4.99,5.2-.98,2.17-1.01,3.81-.09,4.95.93,1.13,3.05,1.7,6.36,1.7h17.04c1.19,0,1.94.22,2.26.65.32.43.31,1.03-.03,1.78-.4.87-.93,1.5-1.61,1.9-.68.4-1.58.59-2.71.59h-25.83l-1.29,2.83h26.82c3.49,0,6.34-.56,8.57-1.67s3.91-2.9,5.03-5.37c.88-1.94.97-3.53.24-4.76-.72-1.24-2.6-1.85-5.63-1.85h-18.22c-.96,0-1.62-.2-1.97-.61-.35-.4-.36-.98-.01-1.74.38-.85.92-1.46,1.62-1.82.7-.37,1.56-.55,2.6-.55h25.69l1.29-2.83Z"/><polygon points="311.21 168.89 301.88 168.89 292.24 190.08 301.57 190.08 311.21 168.89"/><path d="M360.17,168.52c-2.99,0-5.47.3-7.41.89-1.95.59-3.46,1.57-4.55,2.93l-11.13,13.84c-.18.23-.39.43-.64.61-.25.18-.57.27-.94.27s-.6-.08-.71-.24c-.12-.16-.16-.35-.13-.58l1.53-13.93c.15-1.32-.58-2.28-2.18-2.88-1.6-.6-3.85-.9-6.75-.9-3.47,0-6.21.39-8.24,1.16-2.03.77-3.38,1.89-4.04,3.36l-7.75,17.04h8.76l7.72-16.98c.24-.53.55-.9.94-1.13.38-.23.84-.34,1.37-.34s.88.13.99.4c.11.26.16.57.13.93l-1.15,13.71c-.1,1.19.5,2.11,1.81,2.78,1.32.67,3.25,1,5.82,1s4.9-.34,6.88-1.03c1.99-.69,3.48-1.64,4.49-2.84l11.21-13.59c.38-.47.73-.81,1.05-1.03.32-.22.74-.33,1.27-.33s.87.12.98.35c.11.24.04.62-.2,1.15l-7.71,16.95h8.76l7.75-17.04c.68-1.49.33-2.61-1.03-3.38-1.37-.76-3.66-1.14-6.88-1.14h0Z"/><path d="M397.5,168.89h-21.31l-1.29,2.83h21.62c1.2,0,1.99.2,2.36.59.37.4.32,1.1-.15,2.12l-.86,1.89c-.48,1.05-1.08,1.78-1.8,2.16-.72.38-1.69.58-2.89.58h-14.55c-2.65,0-4.63.29-5.92.86-1.29.57-2.23,1.52-2.83,2.84l-3.33,7.32h9.32l3.79-8.34h12.04c2.64,0,4.88-.11,6.72-.34,1.84-.23,3.38-.57,4.59-1.02,1.21-.45,2.19-1.04,2.94-1.77.74-.72,1.34-1.58,1.78-2.56l.59-1.3c.52-1.15.75-2.1.68-2.87-.07-.76-.51-1.37-1.32-1.81-.82-.44-2.06-.75-3.72-.93-1.66-.18-3.82-.27-6.47-.27h0Z"/><path d="M424.15,168.89h-9.32l-5.46,12.01c-.7,1.55-1.02,2.9-.95,4.06.06,1.16.58,2.11,1.55,2.87.97.76,2.42,1.32,4.37,1.7,1.95.38,4.43.57,7.44.57h17.66l1.29-2.83h-18.23c-1.41,0-2.51-.09-3.3-.28-.79-.19-1.32-.51-1.6-.96-.27-.45-.32-1.06-.14-1.84.18-.77.54-1.74,1.07-2.91l5.63-12.38Z"/><polygon points="488.68 168.89 452.46 168.89 442.82 190.08 479.04 190.08 480.33 187.25 453.43 187.25 456.4 180.73 483.3 180.73 484.58 177.9 457.68 177.9 460.5 171.71 487.4 171.71 488.68 168.89"/><path d="M529.74,168.89h-24.67l-9.64,21.19h24.67c3.11,0,5.81-.19,8.11-.57,2.3-.38,4.27-.94,5.9-1.7,1.63-.75,2.99-1.71,4.07-2.87,1.08-1.16,1.98-2.51,2.68-4.05l1.29-2.83c.7-1.55,1.02-2.9.95-4.05-.07-1.16-.58-2.11-1.55-2.87-.97-.75-2.42-1.32-4.37-1.7-1.95-.38-4.43-.57-7.44-.57h0ZM506.04,187.25l7.07-15.54h15.34c1.41,0,2.52.09,3.31.28.79.19,1.32.51,1.6.96.27.45.32,1.06.14,1.84s-.54,1.74-1.07,2.91l-1.61,3.53c-.53,1.17-1.06,2.14-1.58,2.91-.52.77-1.13,1.39-1.82,1.85-.69.46-1.51.78-2.48.97-.96.19-2.15.28-3.56.28h-15.34Z"/><polygon points="586.65 168.89 550.43 168.89 540.78 190.08 577.01 190.08 578.29 187.25 551.39 187.25 554.36 180.73 581.26 180.73 582.55 177.9 555.65 177.9 558.46 171.71 585.36 171.71 586.65 168.89"/><path d="M611.51,168.52c-3.03,0-5.62.44-7.77,1.33-2.15.89-4.08,2.1-5.8,3.64l-18.54,16.59h9.64l6.19-5.71h18.08l.99,5.71h9.75l-3.42-16.7c-.29-1.47-1.12-2.65-2.48-3.53-1.36-.89-3.57-1.33-6.65-1.33h0ZM598.59,181.26l9.53-8.79c.33-.3.65-.52.97-.65.32-.13.65-.2.97-.2s.58.07.78.21c.2.14.32.36.38.66l1.52,8.76h-14.16Z"/><path d="M644.01,168.89h-9.32l-5.46,12.01c-.7,1.55-1.02,2.9-.95,4.06.06,1.16.58,2.11,1.55,2.87.97.76,2.42,1.32,4.37,1.7,1.95.38,4.43.57,7.44.57h17.66l1.29-2.83h-18.22c-1.41,0-2.51-.09-3.31-.28-.79-.19-1.32-.51-1.6-.96-.27-.45-.32-1.06-.14-1.84.18-.77.54-1.74,1.07-2.91l5.63-12.38Z"/><polygon points="702.89 168.89 672.32 168.89 662.68 190.08 698.9 190.08 700.19 187.25 673.29 187.25 676.26 180.73 703.16 180.73 704.44 177.9 677.55 177.9 680.36 171.71 707.26 171.71 701.61 171.71 702.89 168.89"/><path d="M725.05,168.89h-22.15l-1.29,2.83h20.77c1.09,0,1.97.05,2.62.14.65.1,1.12.24,1.4.45.28.21.42.49.4.83-.02.35-.14.78-.37,1.29l-.48,1.05c-.5,1.11-1.19,1.84-2.05,2.2-.86.36-2.32.54-4.37.54h-11.33c-.64,0-1.19.1-1.64.31-.45.21-.77.52-.96.93-.17.38-.19.72-.07,1.02.13.3.45.68.96,1.13l9.65,8.48h12.4l-9.64-8.19c-.14-.11-.24-.22-.3-.33-.07-.1-.06-.24.02-.41.09-.19.21-.32.38-.41.17-.08.37-.13.6-.13h3.22c1.9,0,3.56-.11,4.97-.33,1.41-.22,2.6-.54,3.57-.97.97-.43,1.77-.97,2.4-1.61.63-.64,1.13-1.37,1.51-2.2l.46-1.02c.49-1.07.68-1.97.57-2.7-.11-.73-.59-1.3-1.42-1.72-.83-.42-2.06-.72-3.67-.9-1.61-.18-3.66-.27-6.15-.27h0Z"/><path d="M777.6,168.89h-26.87c-3.26,0-6.01.54-8.25,1.61-2.24,1.07-3.91,2.81-4.99,5.2-.99,2.17-1.02,3.81-.09,4.95.93,1.13,3.05,1.7,6.36,1.7h17.04c1.19,0,1.94.22,2.26.65.32.43.31,1.03-.03,1.78-.39.87-.93,1.5-1.61,1.9-.68.4-1.58.59-2.71.59h-25.83l-1.29,2.83h26.82c3.49,0,6.34-.56,8.57-1.67s3.91-2.9,5.03-5.37c.88-1.94.97-3.53.24-4.76-.72-1.24-2.59-1.85-5.63-1.85h-18.22c-.96,0-1.62-.2-1.97-.61-.35-.4-.36-.98-.01-1.74.38-.85.92-1.46,1.62-1.82.7-.37,1.56-.55,2.6-.55h25.69l1.29-2.83Z"/></svg>