<?xml version="1.0" encoding="utf-8"?>
<!-- Generator: Adobe Illustrator 28.0.0, SVG Export Plug-In . SVG Version: 6.00 Build 0)  -->
<svg version="1.1" id="Camada_1" xmlns="http://www.w3.org/2000/svg" xmlns:xlink="http://www.w3.org/1999/xlink" x="0px" y="0px"
	 viewBox="0 0 500 500" style="enable-background:new 0 0 500 500;" xml:space="preserve">
<style type="text/css">
	.st0{fill-rule:evenodd;clip-rule:evenodd;}
</style>
<g transform="scale(20)">
	<g transform="translate(0,0)">
		<g>
			<g transform="translate(3.5,3.5)">
				<path class="st0" d="M-3.5-3.5v7h7v-7H-3.5z M-2.5-2.5v5h5v-5H-2.5z"/>
				<path class="st0" d="M-1.5-1.5v3h3v-3H-1.5z"/>
			</g>
		</g>
		<g>
			<g transform="translate(21.5,3.5)">
				<g transform="rotate(90)">
					<path class="st0" d="M-3.5-3.5v7h7v-7H-3.5z M-2.5-2.5v5h5v-5H-2.5z"/>
					<path class="st0" d="M-1.5-1.5v3h3v-3H-1.5z"/>
				</g>
			</g>
		</g>
		<g>
			<g transform="translate(3.5,21.5)">
				<g transform="rotate(-90)">
					<path class="st0" d="M-3.5-3.5v7h7v-7H-3.5z M-2.5-2.5v5h5v-5H-2.5z"/>
					<path class="st0" d="M-1.5-1.5v3h3v-3H-1.5z"/>
				</g>
			</g>
		</g>
		<path class="st0" d="M8,0v4h1V2h1v1h1v1h-1v1h2v4h-1v1h1V9h1v2h4v-1h1V9h-1V8h-1v2h-1V9h-1V7h1V6h-1v1h-1V5h1V4h-2V3h1V2h-1v1h-1
			V2h-1V1H9V0H8z M11,0v1h3V0H11z M16,0v1h1V0H16z M15,3v1h1v1h1V3H15z M8,5v2h1v1h2V6h-1v1H9V5H8z M16,6v1h1V6H16z M0,8v1h1v1H0v2
			h1v1H0v1h1v-1h1v1h1v1H2v1H0v1h3v-2h1v1h2v1h2v1h1v1H8v2h1v1h1v1h2v2h1v-1h1v-3h1v1h1v2h-1v1h2v-4h2v1h1v1h-1v2h6v-2h-1v-1h1v-1
			h-2v2h-2v-1h1v-1h-1v-1h4v-1h-4v-1h1v-1h-1v-1h-2v-1h-2v-1h1v-1h1v-2h-1v2h-2v2h1v1h-1v2h-1v-4h-1v-2h-1v3h-1v1h1v-1h1v2h-1v2h-1
			v1h1v-1h1v2h-3v-1H9v-1h2v-1h1v-1h-1v-1H9v-2h1v-1h1v-2h-1v2H9v-1H8v1h1v1H8v1H7v-1H4v-1h3v-1H4v-1H3v-1h2v1h3v-1h2V9H7V8H4v1H2V8
			H0z M19,8v1h1V8H19z M21,8v2h-1v1h1v-1h1V9h2v1h-1v1h-1v1h1v2h1v1h1V8H21z M5,9v1h2V9H5z M1,10v2h2v1h1v-1H3v-1H2v-1H1z M21,13v1
			h-1v1h1v-1h1v-1H21z M6,15v1h1v-1H6z M22,15v1h1v-1H22z M8,16v1h1v-1H8z M24,16v2h1v-2H24z M10,17v1h1v-1H10z M17,17v3h3v-3H17z
			 M18,18v1h1v-1H18z M15,20v1h1v-1H15z M20,21v1h1v-1H20z M12,22v1h1v-1H12z M8,23v2h3v-1H9v-1H8z M23,23v1h1v-1H23z"/>
	</g>
</g>
</svg>
