<?xml version="1.0" encoding="utf-8"?>
<!-- Generator: Adobe Illustrator 20.1.0, SVG Export Plug-In . SVG Version: 6.00 Build 0)  -->
<svg version="1.1" id="Camada_1" xmlns="http://www.w3.org/2000/svg" xmlns:xlink="http://www.w3.org/1999/xlink" x="0px" y="0px"
	 viewBox="0 0 240 51.1" style="enable-background:new 0 0 240 51.1;" xml:space="preserve">
<style type="text/css">
	.st0{fill:#080404;}
</style>
<g>
	<path class="st0" d="M99.7,19.4c1.8,0,3.5,0,5.3,0c0.3,0,0.7,0.5,0.9,0.9c1.7,3.3,3.3,6.7,4.9,10.1c0.1,0.2,0.3,0.5,0.5,0.9
		c0.2-0.4,0.3-0.6,0.4-0.8c1.6-3.4,3.3-6.7,4.9-10.1c0.3-0.7,0.8-1,1.6-1c1.6,0,3.1,0,4.7,0c0,0.4,0,0.6,0,0.9c0,4.6,0,9.1,0,13.7
		c0,0.9-0.3,1.2-1.2,1.2c-1.5,0-3,0-4.5,0v-8.5c-0.1,0-0.1,0-0.2-0.1c-0.1,0.2-0.3,0.4-0.4,0.6c-1.1,2.4-2.3,4.7-3.4,7.1
		c-0.3,0.6-0.6,0.8-1.3,0.9c-1.7,0.2-2.6-0.4-3.2-2c-0.8-2.1-1.9-4-2.8-6c-0.1-0.2-0.2-0.4-0.6-0.6V35c-1.8,0-3.6,0-5.3,0
		c-0.2,0-0.5-0.5-0.5-0.7c0-4.9,0-9.7,0-14.6C99.6,19.6,99.6,19.6,99.7,19.4L99.7,19.4z"/>
	<path class="st0" d="M70.3,19.4v3.3c-0.3,0-0.6,0.1-0.9,0.1c-5.1,0-10.1,0-15.2,0c-1.4,0-1.8,0.3-1.8,1.7c0,1.8,0,3.6,0,5.5
		c0,1.1,0.3,1.5,1.5,1.5c3.1,0,6.2,0,9.4,0c1.1,0,1.4-0.3,1.4-1.5c0-0.4,0-0.9,0-1.5h-7.8v-2.7c0.3,0,0.6-0.1,0.8-0.1
		c3.8,0,7.6,0,11.4,0c0.8,0,1.2,0.2,1.2,1.1c-0.1,1.7,0,3.5-0.2,5.2c-0.2,1.9-1.3,2.9-3.3,3C61.9,35.1,57,35,52.1,35
		c-0.5,0-0.9-0.1-1.4-0.2c-2.3-0.5-3.5-1.7-3.6-4c-0.1-2.4-0.2-4.9,0-7.3c0.2-2.5,1.8-4,4.3-4.1c2.3-0.1,4.7-0.1,7-0.1
		c3.5,0,7.1,0,10.6,0C69.4,19.3,69.8,19.4,70.3,19.4L70.3,19.4z"/>
	<path class="st0" d="M71.8,19.3c1.8,0,3.5,0,5.1,0c0.3,0,0.6,0.6,0.7,0.9c0.9,2.7,1.8,5.3,2.6,8c0.1,0.2,0.2,0.5,0.3,0.9
		c0.2-0.4,0.3-0.6,0.3-0.8c0.9-2.8,1.8-5.5,2.7-8.3c0.3-0.8,0.8-0.8,1.5-0.8c0.6,0,1,0.2,1.2,0.8c0.9,2.7,1.8,5.5,2.7,8.2
		c0.1,0.2,0.2,0.5,0.3,0.9c0.2-0.5,0.3-0.7,0.4-1c0.9-2.6,1.7-5.3,2.5-7.9c0.2-0.8,0.6-1.1,1.4-1c1.2,0,2.4,0,3.6,0
		c0.2,0,0.4,0,0.8,0c-0.4,1.4-0.9,2.6-1.3,3.9c-1.2,3.6-2.4,7.3-3.6,10.9C93,34.8,92.7,35.1,92,35c-1,0-1.9,0-2.9,0
		c-0.6,0-0.9-0.2-1.1-0.8c-0.8-2.5-1.7-4.9-2.6-7.4c-0.1-0.3-0.2-0.5-0.4-0.9c-0.2,0.4-0.4,0.7-0.5,0.9c-0.9,2.5-1.7,4.9-2.6,7.4
		c-0.2,0.6-0.6,0.9-1.2,0.8c-1,0-2,0-3,0c-0.3,0-0.8-0.3-0.9-0.5C75.2,29.5,73.5,24.5,71.8,19.3L71.8,19.3z"/>
</g>
<g>
	<path class="st0" d="M22.9,21.1c2.1,1.2,4,2.3,6.1,3.4c0,1.3,0,2.7,0,4c-0.1,3.1,2.1,3.6,4.2,3.1c2.7-0.6,4.3-3.6,3.7-6.5
		c-0.4-2-1.7-3.6-3.3-4.7c-2.4-1.7-5-2.5-7.9-2.9c-4.1-0.5-8.1-0.2-12,1.4c-1.7,0.7-3.3,1.7-4.5,3.2c-2.2,2.7-2.1,6.3,0.2,8.4
		c1.2,1.1,2.7,1.5,4.3,1.2c1.2-0.2,2-1.2,2-2.5c0-1.5,0-3.1,0-4.6c2-1.1,4-2.2,6.1-3.4c0,1.2,0,2.2,0,3.2c0,2.4,0,4.7-0.1,7.1
		c-0.1,2.5-1.5,4-4,4.3c-3.3,0.4-6.3-0.3-8.9-2.4c-3.6-2.9-4.1-8.2-1-11.9c2-2.4,4.6-3.7,7.5-4.4c5.7-1.4,11.3-1.3,16.7,0.9
		c2.2,0.9,4.1,2.3,5.5,4.3c2.7,4.2,1.5,9.3-2.7,11.9c-2.6,1.5-5.4,2.1-8.3,1.6c-2-0.4-3.3-1.7-3.4-3.8c-0.1-2.7-0.1-5.3-0.1-8
		C22.9,23,22.9,22.2,22.9,21.1z"/>
	<path class="st0" d="M22.3,14.5c-11.6,0-18.8,5.7-18.8,12.7s7.6,12.7,18.8,12.7s18.8-5.7,18.8-12.7S33.9,14.5,22.3,14.5z
		 M22.3,38.3c-10.5,0-17.6-4.4-17.6-11.6C4.7,21,11.5,15,22.3,15s17.6,6,17.6,11.6C39.9,34,32.9,38.3,22.3,38.3z"/>
</g>
<rect x="138.4" y="18.6" class="st0" width="1.2" height="17.3"/>
<g>
	<path d="M151.3,18.3h5.8c1.5,0,2.9,0.3,4.2,0.8c1.3,0.6,2.3,1.4,3.1,2.6c0.8,1.2,1.2,2.6,1.2,4.2c0,1.6-0.4,3-1.1,4.2
		c-0.8,1.2-1.8,2.1-3.1,2.8c-1.3,0.6-2.7,1-4.3,1h-5.8L151.3,18.3z M157.1,31.1c1,0,1.9-0.2,2.7-0.7s1.4-1,1.8-1.8
		c0.4-0.7,0.6-1.6,0.6-2.5c0-1-0.2-1.8-0.6-2.6c-0.4-0.7-1-1.3-1.7-1.7c-0.8-0.4-1.6-0.6-2.7-0.6h-2.6v9.9H157.1z"/>
	<path d="M171.2,18.3h3.2l7,15.6h-3.5l-2-4.5h-6.1l-2,4.5h-3.5L171.2,18.3z M174.6,26.8l-1.9-4.2l-1.9,4.2H174.6z"/>
	<path d="M182.6,18.3h3.3v6.4h5.5v-6.4h3.3v15.6h-3.3v-6.4H186v6.4h-3.3V18.3z"/>
	<path d="M196.1,18.3h6.3c2.2,0,3.8,0.5,4.7,1.5s1.4,2.2,1.4,3.6c0,1.2-0.3,2.3-0.9,3.2c-0.6,0.9-1.5,1.4-2.8,1.6l-0.7,0l3.5,5.8
		H204l-3.4-5.8h-1.1v5.8h-3.3V18.3z M202.4,25.4c0.9,0,1.6-0.2,2.1-0.5s0.7-0.9,0.7-1.6c0-0.7-0.2-1.2-0.7-1.6
		c-0.4-0.4-1.1-0.6-2.1-0.6h-3v4.2H202.4z"/>
	<path d="M212.9,33.4c-1-0.5-1.8-1.2-2.3-2.2c-0.5-0.9-0.8-2-0.8-3.2v-9.6h3.3v9.4c0,1.1,0.3,1.9,0.8,2.6c0.6,0.7,1.4,1,2.4,1
		c1,0,1.8-0.3,2.4-1c0.6-0.7,0.8-1.5,0.8-2.6v-9.4h3.3V28c0,1.2-0.3,2.3-0.8,3.2c-0.5,0.9-1.3,1.7-2.3,2.2s-2.1,0.8-3.5,0.8
		C215,34.2,213.9,33.9,212.9,33.4z"/>
	<path d="M227.2,33.6c-0.9-0.4-1.6-1-2.1-1.8c-0.6-0.8-0.8-1.9-0.8-3.1h3c0.1,0.9,0.4,1.5,0.8,2c0.5,0.5,1.1,0.8,1.9,0.8
		c0.8,0,1.5-0.3,1.9-0.9s0.7-1.3,0.7-2.1V18.3h3v10.1c0,1.4-0.3,2.5-0.8,3.3c-0.5,0.9-1.2,1.5-2.1,1.9c-0.9,0.4-1.8,0.6-2.8,0.6
		S228.1,34,227.2,33.6z"/>
</g>
</svg>
