<?xml version="1.0" encoding="UTF-8"?>
<svg xmlns="http://www.w3.org/2000/svg" version="1.1" viewBox="0 0 162.4 177.6">
  <defs>
    <style>
      .cls-1 {
        fill: #e74233;
      }

      .cls-2 {
        fill: #0c111f;
      }
    </style>
  </defs>
  <!-- Generator: Adobe Illustrator 28.6.0, SVG Export Plug-In . SVG Version: 1.2.0 Build 709)  -->
  <g>
    <g id="Camada_1">
      <g>
        <path class="cls-2" d="M161.6,116.4c0,12.9-4.2,26-13.5,36.3-7.1,8.5-14.7,14.2-23.4,17.9-4.1,1.8-8.5,3.1-13.2,4-7.9,1.6-16.7,2.2-26.8,2.2-1.1,0-2.2,0-3.4,0h-1.3c-1,0-2,0-2.9,0,0,0-.1,0-.2,0-1.5,0-3,0-4.5,0,0,0,0,0-.1,0-3.1,0-6.2-.2-9.3-.4h0c-2.3-.1-4.6-.2-6.8-.4-3.3-.2-6.5-.4-9.7-.7-13.1-1.1-25.4-2.5-34.9-3.8-9.4-1.2-13.8-11-8.4-18.8,7.5-10.6,17-24.2,27.4-37.6,1,.5,2,.9,3,1.3,1.6.7,3.2,1.3,4.8,1.8,6.5,2.1,13.4,3.2,20.2,3.2s9.8-.5,14.6-1.6c4.8-1.1,9.6-2.6,14.3-4.7,13.2-5.9,30-23.6,45.5-42.8.5-.6,1-1.2,1.4-1.8,9.2,5,16.8,12.5,21.7,22,3.6,7.4,5.5,15.6,5.6,23.9h0Z"/>
        <path class="cls-1" d="M159.3,25c-18.3,25.7-47.9,69.5-74.8,83.5-16.2,7.2-34.4,8-50.4,1.6C-.5,97.8-10,52,14.3,24.9,30.6,5.5,49.3.7,78,.8c24.6-.3,54.3,2.9,72.8,5.4,9.4,1.2,13.8,11,8.4,18.8h0Z"/>
      </g>
    </g>
  </g>
</svg>