<?xml version="1.0" encoding="UTF-8"?>
<svg id="Camada_1" xmlns="http://www.w3.org/2000/svg" version="1.1" viewBox="0 0 1858.9 965.1">
  <!-- Generator: Adobe Illustrator 29.0.1, SVG Export Plug-In . SVG Version: 2.1.0 Build 192)  -->
  <defs>
    <style>
      .st0 {
        fill: #fff;
      }
    </style>
  </defs>
  <g>
    <path class="st0" d="M65.1,915.5c0,6.6,3.7,10.2,10.2,10.2h115.1v26.9H50.5c-15.5,0-26.5-11-26.5-26.5v-111.1c0-15.6,11-26.5,26.5-26.5h139.9v26.8h-115.1c-6.3,0-10.2,3.2-10.2,10.2v90h0Z"/>
    <path class="st0" d="M460.2,880.1v35.4c0,6.6,3.7,10.2,10.2,10.2h129v26.9h-153.8c-15.5,0-26.5-11-26.5-26.5v-111.1c0-15.6,11-26.5,26.5-26.5h141.3v26.8h-116.6c-6.3,0-10.2,3.2-10.2,10.2v27.7h127.4v26.9h-127.4Z"/>
    <polygon class="st0" points="342.1 880.1 342.1 952.5 383.3 952.5 383.3 788.4 342.1 788.4 342.1 853.2 250.3 853.2 250.3 788.4 209.2 788.4 209.2 952.5 250.3 952.5 250.3 880.1 342.1 880.1"/>
    <polygon class="st0" points="1649.6 788.4 1649.6 815.3 1721.8 815.3 1721.8 952.5 1762.9 952.5 1762.9 815.3 1835 815.3 1835 788.4 1649.6 788.4 1649.6 788.4"/>
    <polygon class="st0" points="1277.2 952.5 1277.2 788.4 1318.4 788.4 1318.4 925.6 1446.6 925.6 1446.6 952.6 1277.2 952.5 1277.2 952.5 1277.2 952.5"/>
    <path class="st0" d="M722.9,952.6c15.5,0,19.4-7.1,23.4-15.6s66.5-148.5,66.5-148.5h-42.9s-55.9,132.6-56.6,134.2c-1.1,2.3-2.5,2.6-6.4,2.6s-5.3-.3-6.4-2.6c-.7-1.6-56.6-134.2-56.6-134.2h-42.9s62.5,140,66.5,148.5c4.1,8.5,7.9,15.6,23.4,15.6h31.8Z"/>
    <path class="st0" d="M1214.7,788.4h-135.3c-15.5,0-26.5,10.9-26.5,26.5v111.1c0,15.5,11,26.5,26.5,26.5h135.3c15.5,0,26.5-11,26.5-26.5v-111.1c0-15.6-11-26.5-26.5-26.5ZM1200.1,915.5c0,6.6-3.7,10.2-10.2,10.2h-85.8c-6.5,0-10.2-3.5-10.2-10.2v-90c0-7,3.8-10.2,10.2-10.2h85.8c6.4,0,10.2,3.2,10.2,10.2v90Z"/>
    <path class="st0" d="M1501.1,880.1v35.4c0,6.6,3.7,10.2,10.2,10.2h129v26.9h-153.8c-15.5,0-26.5-11-26.5-26.5v-111.1c0-15.6,11-26.5,26.5-26.5h141.4v26.8h-116.6c-6.4,0-10.2,3.2-10.2,10.2v27.7h127.4v26.9h-127.4,0Z"/>
    <path class="st0" d="M975,846.6c0,6.7-3.7,10.2-10.2,10.2h-64.7c-6.1,0-11.5,5-11.5,11.3s1.5,6.9,3.4,8.8c2.8,2.6,91.4,75.8,91.4,75.8h62.2c0,0-90.2-69.1-90.2-69.1h34.2c15.5,0,26.5-11,26.5-26.5v-42c0-15.6-11-26.5-26.5-26.5h-159.4v164.1h41v-137.3h93.6c6.3,0,10.2,3.2,10.2,10.2v21.1h0Z"/>
  </g>
  <path class="st0" d="M1792.7,143.7h0s-511.8,0-511.8,0c-13.1,0-21.6-3.8-21.6-21.8V45.9c0-21.9-11.8-33.5-33.2-33.5h-585.8c-21.9,0-33.2,12.4-33.2,33.3v75.9c0,16-7.6,21.8-21.7,21.8H250.1c-25.6,0-40.7,12.3-48.4,28.4L38.4,491.1c-2.1,4-3.3,8.7-3.3,13.5,0,12.7,8.3,29,31.1,29h519.3c16,0,21.6,7.2,21.6,21.8v75.9c0,22.9,13.3,33.3,33.2,33.3h585.8c20,0,33.2-9.7,33.2-33.1v-75.9c0-15.6,6.5-21.9,21.6-21.9h325.6c22.5,0,38.6-6,49.9-26.9l161.5-315.4c3.5-6.8,6-10.7,6-18.8,0-21.4-18.5-29-31.2-29ZM1663.8,270.8h0c0,0-77.8,152.2-77.8,152.2-4.9,8.8-13.5,9.2-19.7,9.2h-386.4c-16,0-21.9,7.3-21.9,21.8v87.6c0,14.6-6.4,21.6-22,21.6h-405.8c-13.6,0-21.9-4.8-21.9-21.7v-87.6c0-16-7.4-21.7-21.9-21.7H212.8c-11.6,0-19.7-7.3-19.7-17.5s.7-5.7,2-8.2l77.8-152.3c3-5.4,7.9-9.1,19.6-9.1h393.9c13.6,0,22-5.4,22-22v-87.6c0-15.5,6.7-21.7,21.8-21.7h405.8c14.6,0,21.8,6.4,21.8,22v87.6c0,15.1,6.9,21.7,22,21.7h466.1c14.8,0,19.7,9.8,19.7,17.5s-.7,5.7-2,8.2Z"/>
</svg>