<?xml version="1.0" encoding="UTF-8"?>
<svg id="logo-grupoab" xmlns="http://www.w3.org/2000/svg" version="1.1" viewBox="0 0 197.2 48.8">
  <!-- Generator: Adobe Illustrator 29.0.1, SVG Export Plug-In . SVG Version: 2.1.0 Build 192)  -->
  <defs>
    <style>
      .st0 {
        fill: #fff;
      }
    </style>
  </defs>
  <path class="st0" d="M1,31.6l3.7-6.1c.5-.8,1.1-1.4,1.9-1.9s1.6-.7,2.4-.7h13l-1.6,2.6H7.7l-3.7,6.1h12.6l-1.6,2.6H2c-.8,0-1.3-.2-1.5-.7s0-1.1.4-1.9h0ZM9.8,17.1l1.6-2.6h15.6l-1.6,2.6s-15.6,0-15.6,0Z"/>
  <path class="st0" d="M33.4,27c0-.4,0-.8-.1-.9,0-.2-.3-.3-.6-.3s-.7,0-1,.3c-.3.2-.7.5-1.3.9L3.6,48H0l30.2-23.5-1-10h3.7l.6,7.3c0,.4,0,.8.1,1,0,.2.3.3.6.3s.7,0,1-.3c.3-.2.7-.5,1.3-1L59.6.8h3.5l-26.5,23.5,1.1,10h-3.7l-.6-7.3h0Z"/>
  <path class="st0" d="M50.9,17.1l1.6-2.6h8.2c.9,0,1.8,0,2.6.3s1.4.5,1.8.9.6,1,.6,1.7c0,.7-.4,1.6-1,2.7l-.7,1.2c-.7,1.1-1.4,2-2.2,2.7s-1.7,1.3-2.6,1.7c-.9.4-1.9.7-2.8.9s-1.9.3-2.9.3h-5.2l-4.7,7.7h-3l4.1-6.7c.7-1.2,1.7-2.1,2.8-2.7,1.1-.6,2.3-.9,3.6-.9h4.5c1.4,0,2.4-.2,3.2-.7s1.5-1.2,2.1-2.1l.8-1.3c.6-.9.7-1.7.5-2.1-.2-.5-1-.7-2.4-.7h-8.7,0Z"/>
  <path class="st0" d="M105.5,17.1c0,.7-.4,1.5-1,2.5l-.4.7c-1.2,2-2.7,3.4-4.3,4.1-1.7.7-3.6,1.1-5.8,1.1h-1.6l3.2,8.8h-4l-3.2-8.8h-1.2l-5.4,8.8h-3l6-9.9c.3-.5.7-.9,1.2-1.1.5-.3,1-.4,1.4-.4h9c1.1,0,2-.2,2.7-.5.7-.4,1.3-1,1.9-2l.5-.8c.6-1,.7-1.6.5-1.9-.2-.3-.9-.5-2.1-.5h-27l-3.5,5.8h12.8l-1.6,2.6h-12.8l-3.7,6.1h12.8l-1.6,2.6h-15.9l12.1-19.8h29.3c1,0,1.8,0,2.6.2.7.2,1.3.4,1.7.8.4.4.5.9.5,1.6h0Z"/>
  <polygon class="st0" points="99.5 34.3 111.5 14.5 114.6 14.5 102.5 34.3 99.5 34.3"/>
  <path class="st0" d="M109.2,31.6l3.7-6.1c.5-.8,1.1-1.4,1.9-1.9.8-.5,1.6-.7,2.3-.7h12.9l-1.6,2.6h-12.5l-3.7,6.1h12.5l-1.6,2.6h-12.9c-.8,0-1.3-.2-1.4-.7s0-1.1.4-1.9h0ZM118,17.1l1.6-2.6h15.6l-1.6,2.6h-15.6Z"/>
  <path class="st0" d="M127.2,34.3l12.1-19.8h12.6c1.8,0,2.7.5,2.9,1.5.2,1-.3,2.4-1.4,4.2l-8.6,14.1h-3l8.8-14.4c.6-1,.9-1.7.7-2.1-.2-.4-.7-.6-1.7-.6h-8.9l-10.5,17.1h-3Z"/>
  <path class="st0" d="M167.7,31.6l-1.6,2.6h-8.7c-1.5,0-2.8-.2-3.6-.6-.9-.4-1.4-1-1.6-1.7-.2-.8-.2-1.7.1-2.7.3-1.1.9-2.3,1.7-3.6l1.5-2.5c.8-1.3,1.7-2.5,2.7-3.6,1-1.1,2-2,3.2-2.7,1.2-.8,2.4-1.3,3.8-1.7s2.8-.6,4.4-.6h8.6l-1.6,2.6h-9c-1.8,0-3.4.4-4.7,1.3-1.3.9-2.5,2.2-3.6,4l-2.4,4c-1.1,1.8-1.5,3.1-1.3,4,.2.9,1.3,1.3,3.1,1.3h9.1,0Z"/>
  <path class="st0" d="M171.1,31.6l3.7-6.1c.5-.8,1.1-1.4,1.9-1.9s1.6-.7,2.3-.7h13l-1.6,2.6h-12.6l-3.7,6.1h12.6l-1.6,2.6h-13c-.8,0-1.3-.2-1.5-.7s0-1.1.4-1.9h0ZM179.9,17.1l1.6-2.6h15.6l-1.6,2.6h-15.6Z"/>
  <path class="st0" d="M7.4,5.9h-3l-1.4,3h3c.3,0,.5,0,.7,0,.2,0,.3,0,.5-.2.1,0,.3-.2.4-.4.1-.1.2-.3.3-.6l.3-.7c.1-.2.2-.4.2-.6,0-.1,0-.3,0-.4s-.2-.1-.3-.2c-.2,0-.4,0-.6,0h0ZM7.7,5.4c.6,0,1.1,0,1.4.1.4,0,.7.2.8.3.2.1.3.3.3.6s0,.5-.2.8l-.2.5c-.1.3-.3.6-.5.8-.2.2-.5.4-.8.6-.3.1-.7.3-1.1.3-.4,0-1,.1-1.6.1H1l1.9-4.1h4.8,0Z"/>
  <polygon class="st0" points="9.8 9.5 11.6 5.4 18.6 5.4 18.4 5.9 13.2 5.9 12.6 7.1 17.8 7.1 17.6 7.7 12.4 7.7 11.8 8.9 17 8.9 16.8 9.5 9.8 9.5"/>
  <path class="st0" d="M22.8,6.1l-1.8,1.7h2.7l-.3-1.7c0,0,0-.1,0-.1,0,0,0,0-.2,0s-.1,0-.2,0c0,0-.1,0-.2.1h0ZM24,9.5l-.2-1.1h-3.5l-1.2,1.1h-1.9l3.6-3.2c.3-.3.7-.5,1.1-.7.4-.2.9-.3,1.5-.3s1,0,1.3.3c.3.2.4.4.5.7l.7,3.2s-1.9,0-1.9,0Z"/>
  <polygon class="st0" points="26.4 9.5 28.3 5.4 30.1 5.4 28.4 8.9 32.7 8.9 32.5 9.5 26.4 9.5"/>
  <polygon class="st0" points="33.2 9.5 35 5.4 42 5.4 41.8 5.9 36.6 5.9 36 7.1 41.2 7.1 41 7.7 35.8 7.7 35.2 8.9 40.4 8.9 40.2 9.5 33.2 9.5"/>
  <path class="st0" d="M44.4,5.9l-1.6,3.5h-1.8l1.9-4.1h5c.5,0,.9,0,1.2,0,.3,0,.5,0,.7.2.2,0,.3.2.3.3,0,.1,0,.3-.1.5v.2c-.2.2-.3.3-.4.4-.1.1-.3.2-.5.3-.2,0-.4.1-.7.2s-.6,0-1,0h-.6s0,0-.1,0c0,0,0,0,0,0,0,0,0,0,0,0h0c0,0,1.9,1.6,1.9,1.6h-2.4l-1.7-1.6c0,0-.2-.2-.2-.2,0,0,0-.1,0-.2,0,0,0-.1.2-.2s.2,0,.3,0h2c.4,0,.7,0,.8-.1.2,0,.3-.2.4-.4v-.2c.1,0,.2-.2.2-.2,0,0,0-.1,0-.2s-.1,0-.3,0-.3,0-.5,0h-2.9Z"/>
  <path class="st0" d="M41.9,40.7h-3.5l-1.4,3.1h3.6c.4,0,.8,0,1,0s.5,0,.7-.1c.2,0,.3-.1.5-.2.1,0,.2-.2.3-.4v-.2c.1,0,.1-.1.1-.2,0,0,0-.1,0-.2,0,0-.1-.1-.2-.2-.1,0-.3,0-.4-.1.2,0,.4,0,.5-.1.1,0,.3,0,.3-.1,0,0,.2-.1.2-.2s0-.1.1-.2h0c0-.3,0-.4,0-.5,0-.1-.1-.2-.2-.2s-.3-.1-.6-.1-.6,0-1,0h0ZM39.1,42l.4-.9h2.3c.2,0,.3,0,.3,0,0,0,0,.1,0,.3v.2c-.2.1-.2.2-.3.3s-.2,0-.4,0h-2.3ZM38.5,43.4l.4-.9h2.4c.2,0,.3,0,.3,0s0,.2,0,.3v.2c-.2.1-.2.2-.3.3,0,0-.2,0-.4,0h-2.4,0Z"/>
  <path class="st0" d="M50.2,40.7h-1.3l-2.7,2.6-.4-2.6h-1.4l.5,2.7h-1.7l-.2.4h2.7c.2,0,.4,0,.6,0,.2,0,.3,0,.5,0,.1,0,.3-.1.4-.2s.3-.2.4-.3l2.7-2.5h0Z"/>
  <path class="st0" d="M63.9,38.5h-6.7c-.8,0-1.5.1-2.1.4s-1,.7-1.3,1.3c-.2.5-.3,1,0,1.2.2.3.8.4,1.6.4h4.3c.3,0,.5,0,.6.2s0,.3,0,.4c-.1.2-.2.4-.4.5s-.4.1-.7.1h-6.5l-.3.7h6.7c.9,0,1.6-.1,2.2-.4s1-.7,1.3-1.3c.2-.5.2-.9,0-1.2-.2-.3-.7-.5-1.4-.5h-4.6c-.2,0-.4,0-.5-.2,0-.1,0-.2,0-.4,0-.2.2-.4.4-.5.2,0,.4-.1.7-.1h6.4l.3-.7h0Z"/>
  <polygon class="st0" points="67.5 38.5 65.1 38.5 62.7 43.8 65.1 43.8 67.5 38.5"/>
  <path class="st0" d="M79.8,38.4c-.8,0-1.4,0-1.9.2-.5.1-.9.4-1.1.7l-2.8,3.5c0,0,0,.1-.2.2,0,0-.1,0-.2,0s-.2,0-.2,0c0,0,0,0,0-.1l.4-3.5c0-.3-.1-.6-.5-.7s-1-.2-1.7-.2-1.6,0-2.1.3-.8.5-1,.8l-1.9,4.3h2.2l1.9-4.3c0-.1.1-.2.2-.3,0,0,.2,0,.3,0s.2,0,.2.1c0,0,0,.1,0,.2l-.3,3.4c0,.3.1.5.5.7.3.2.8.3,1.5.3s1.2,0,1.7-.3c.5-.2.9-.4,1.1-.7l2.8-3.4c0-.1.2-.2.3-.3,0,0,.2,0,.3,0s.2,0,.2,0c0,0,0,.2,0,.3l-1.9,4.3h2.2l1.9-4.3c.2-.4,0-.7-.3-.8-.3-.2-.9-.3-1.7-.3h0Z"/>
  <path class="st0" d="M89.1,38.5h-5.3l-.3.7h5.4c.3,0,.5,0,.6.1,0,.1,0,.3,0,.5l-.2.5c-.1.3-.3.4-.5.5s-.4.1-.7.1h-3.7c-.7,0-1.2,0-1.5.2s-.6.4-.7.7l-.8,1.8h2.3l1-2.1h3c.7,0,1.2,0,1.7,0s.8-.1,1.2-.3.5-.3.7-.4c.2-.2.3-.4.4-.6v-.3c.3-.3.3-.5.3-.7,0-.2-.1-.3-.3-.5-.2-.1-.5-.2-.9-.2s-1,0-1.6,0h0Z"/>
  <path class="st0" d="M95.8,38.5h-2.3l-1.4,3c-.2.4-.3.7-.2,1,0,.3.1.5.4.7s.6.3,1.1.4c.5,0,1.1.1,1.9.1h4.4l.3-.7h-4.6c-.4,0-.6,0-.8,0-.2,0-.3-.1-.4-.2,0-.1,0-.3,0-.5,0-.2.1-.4.3-.7l1.4-3.1h0Z"/>
  <polygon class="st0" points="112 38.5 102.9 38.5 100.5 43.8 109.6 43.8 109.9 43.1 103.2 43.1 103.9 41.5 110.7 41.5 111 40.8 104.2 40.8 104.9 39.2 111.7 39.2 112 38.5"/>
  <path class="st0" d="M122.3,38.5h-6.2l-2.4,5.3h6.2c.8,0,1.5,0,2-.1s1.1-.2,1.5-.4c.4-.2.8-.4,1-.7.3-.3.5-.6.7-1l.3-.7c.2-.4.3-.7.2-1,0-.3-.1-.5-.4-.7-.2-.2-.6-.3-1.1-.4-.5,0-1.1-.1-1.9-.1h0ZM116.4,43.1l1.8-3.9h3.8c.4,0,.6,0,.8,0s.3.1.4.2c0,.1,0,.3,0,.5s-.1.4-.3.7l-.4.9c-.1.3-.3.5-.4.7s-.3.3-.5.5-.4.2-.6.2c-.2,0-.5,0-.9,0h-3.8Z"/>
  <polygon class="st0" points="136.6 38.5 127.5 38.5 125.1 43.8 134.2 43.8 134.5 43.1 127.7 43.1 128.5 41.5 135.2 41.5 135.6 40.8 128.8 40.8 129.5 39.2 136.3 39.2 136.6 38.5"/>
  <path class="st0" d="M142.8,38.4c-.8,0-1.4.1-1.9.3s-1,.5-1.5.9l-4.7,4.2h2.4l1.6-1.4h4.5l.2,1.4h2.4l-.9-4.2c0-.4-.3-.7-.6-.9-.3-.2-.9-.3-1.7-.3h0ZM139.6,41.6l2.4-2.2c0,0,.2-.1.2-.2,0,0,.2,0,.2,0s.1,0,.2,0,0,0,0,.2l.4,2.2h-3.6,0Z"/>
  <path class="st0" d="M151,38.5h-2.3l-1.4,3c-.2.4-.3.7-.2,1,0,.3.1.5.4.7s.6.3,1.1.4c.5,0,1.1.1,1.9.1h4.4l.3-.7h-4.6c-.4,0-.6,0-.8,0-.2,0-.3-.1-.4-.2,0-.1,0-.3,0-.5,0-.2.1-.4.3-.7l1.4-3.1h0Z"/>
  <polygon class="st0" points="165.8 38.5 158.1 38.5 155.7 43.8 164.8 43.8 165.1 43.1 158.3 43.1 159.1 41.5 165.8 41.5 166.2 40.8 159.4 40.8 160.1 39.2 166.9 39.2 165.4 39.2 165.8 38.5"/>
  <path class="st0" d="M171.3,38.5h-5.6l-.3.7h5.2c.3,0,.5,0,.7,0,.2,0,.3,0,.4.1,0,0,.1.1.1.2,0,0,0,.2,0,.3v.3c-.2.3-.4.5-.6.6s-.6.1-1.1.1h-2.8c-.2,0-.3,0-.4,0-.1,0-.2.1-.2.2,0,0,0,.2,0,.3,0,0,.1.2.2.3l2.4,2.1h3.1l-2.4-2.1s0,0,0,0c0,0,0,0,0-.1,0,0,0,0,0-.1,0,0,0,0,.2,0h.8c.5,0,.9,0,1.2,0s.7-.1.9-.2c.2-.1.4-.2.6-.4s.3-.3.4-.6v-.3c.2-.3.3-.5.3-.7s-.1-.3-.4-.4c-.2-.1-.5-.2-.9-.2s-.9,0-1.5,0h0Z"/>
  <path class="st0" d="M184.5,38.5h-6.7c-.8,0-1.5.1-2.1.4s-1,.7-1.3,1.3c-.2.5-.3,1,0,1.2.2.3.8.4,1.6.4h4.3c.3,0,.5,0,.6.2s0,.3,0,.4c0,.2-.2.4-.4.5s-.4.1-.7.1h-6.5l-.3.7h6.7c.9,0,1.6-.1,2.2-.4s1-.7,1.3-1.3c.2-.5.2-.9,0-1.2-.2-.3-.6-.5-1.4-.5h-4.6c-.2,0-.4,0-.5-.2,0-.1,0-.2,0-.4,0-.2.2-.4.4-.5.2,0,.4-.1.7-.1h6.4l.3-.7h0Z"/>
</svg>