<?xml version="1.0" encoding="UTF-8"?>
<svg xmlns="http://www.w3.org/2000/svg" viewBox="0 0 255.22 77.68">
  <defs>
    <style>
      .cls-1, .cls-2 {
        fill-rule: evenodd;
      }

      .cls-1, .cls-2, .cls-3 {
        fill: #fff;
      }

      .cls-2, .cls-3 {
        stroke: #fff;
        stroke-miterlimit: 10;
        stroke-width: .21px;
      }
    </style>
  </defs>
  <g id="Camada_1" image-rendering="optimizeQuality" shape-rendering="geometricPrecision" text-rendering="geometricPrecision">
    <g>
      <path class="cls-3" d="M190.55,77.18h10.58l.12-31.31h12.67c1,5.53,1.24,22.58,1.3,31.31h10.26c.97-38.65-2.04-60.5-10.35-75.71h-25.55l.97,75.71ZM200.74,36.51l.12-25.72h6.38c2.89,5.73,4.75,13.3,6.21,25.72h-12.71ZM143.17,77.18h11.07l-.24-31.4h9.28v-9.79h-9.28l.03-24.64h12.11l-.07-9.89h-25.18v75.71h2.28Z"/>
      <path class="cls-2" d="M170.45,1.47h12.83v75.71h-12.83V1.47ZM232.79,1.47h22.33v9.55h-9.5v66.16h-12.83V11.02h-8.77V1.47h8.77Z"/>
    </g>
    <path class="cls-1" d="M22.15,0h12.27L12.27,77.68H0L22.15,0Z"/>
    <path class="cls-1" d="M47.62,0h12.27l-22.15,77.68h-12.27L47.62,0ZM72.72,0h12.27l-22.15,77.68h-12.27L72.72,0Z"/>
    <path class="cls-1" d="M98.18,0h12.27l-22.15,77.68h-12.27L98.18,0Z"/>
  </g>
</svg>