<?xml version="1.0" encoding="utf-8"?>
<!-- Generator: Adobe Illustrator 20.1.0, SVG Export Plug-In . SVG Version: 6.00 Build 0)  -->
<svg version="1.1" id="Layer_1" xmlns="http://www.w3.org/2000/svg" xmlns:xlink="http://www.w3.org/1999/xlink" x="0px" y="0px"
	 viewBox="0 0 2500 1543" style="enable-background:new 0 0 2500 1543;" xml:space="preserve">
<style type="text/css">
	.st0{fill:#282828;}
</style>
<g>
	<path class="st0" d="M566.1,1146.5c94.5,0,267.7-0.4,267.7-0.4v85.6c0,0-279.8-0.1-389.3,0.1c-41.2,0.1-38.5,4.7-38.8,46.2
		c-0.3,43,0.5,86-0.2,129c-0.4,24.3,2.3,35.6,27.4,35.4c76.8-0.6,153.6-0.2,230.4-0.2c12.8,0,26.1-1.5,29.8-16
		c4.2-16.7,5.4-34.6-0.5-51c-2.5-6.9-13.1-3.1-19.9-3.1c-47.1-0.3-161.6,0.4-161.6,0.4l-0.4-69.3c0,0,198.1-0.5,279-0.6
		c39.1-0.1,41.5,2.2,40.6,41.8c-0.9,37.8,0.8,75.7-4.6,113.4c-6.6,45.5-29.8,68.8-74.7,69.3c-121.8,1.2-243.7,2.7-365.5,1.2
		c-83.1-1-117.7-38.2-121.4-121.1c-2.3-51.2-2.5-102.3,0.7-153.5c3.9-61.8,38.3-97.2,100.1-103
		C439.4,1143.7,514.2,1148,566.1,1146.5L566.1,1146.5z M1683.2,1325.6c0,59-1.5,115.7,0.7,172.3c1,26.5,0,31.4,0,31.4l-141.1-1.2
		c0,0,0-7,0-22.2c-0.1-113.7-0.4-242.3-0.7-356c0,0,88.4-0.3,124.2-0.1c19.1,0.1,25.5,14.1,32.3,28.2
		c34.4,70.7,69,141.4,103.5,212.1c6.6,13.6,13.5,27,23.2,46.1c18-36,34-67.4,49.3-99.1c25.4-52.4,50.8-104.8,75.4-157.6
		c10.7-23,26.1-34.8,52.5-33.4c28.6,1.6,106.9-0.1,106.9-0.1s-0.4,242.5,0.1,353.2c0.1,22.8,0,30.9,0,30.9l-140.9-0.2
		c0,0-0.3-7.4,0-25.2c1-59.3,0.4-118.5,0.4-178.7c-14.6,2-15.5,13.9-19.4,22.1c-23.5,48.8-47.5,97.4-68.8,147.1
		c-10.8,25.1-27,37.1-53.6,36.6c-27.3-0.5-46.9-12.9-57.4-38.4c-19.7-48.2-41.8-95.5-66.1-141.5
		C1699.3,1343.2,1698,1332.2,1683.2,1325.6L1683.2,1325.6z M1506.1,1146.4c-39.3,120.6-77.8,240.7-116.4,359
		c-1.3,3.9-2.4,8.5-5.2,11c-16.9,16.5-64.4,12-99.8,11.7c-15.7-0.5-23.3-13.1-28-26.9c-17.2-50.2-34.2-100.5-51.5-150.6
		c-4.5-13-10-25.7-15.6-40c0,0-57,140.1-74.1,192.5c-6,18.4-16,26.4-35.7,25.9c-105.4-2.6-79.3,13-111.5-78.6
		c-35.2-100-67.5-200.9-101.9-303.9h131.5l83.4,233.7c0,0,50.5-142.8,68.8-201.3c5.9-18.7,12.3-33.2,36.4-33.8
		c24.4-0.6,31.3,13.6,37.3,32.4c18.4,58.4,60.2,195.1,72.4,204.3c21-64.7,73.7-235.3,73.7-235.3S1501,1145.3,1506.1,1146.4
		L1506.1,1146.4z M1185.3,871.3c-155.9-0.8-305.2-28.1-439.7-112.1C657,703.8,587.5,630.8,561,527.3
		c-38.1-149,14.8-269.5,128.7-365.6c95-80.2,208.7-119.4,329.8-137c176.8-25.8,350.9-17,518.7,51.2c54.3,22.1,104.3,51.6,148.9,90
		c182,156.5,180.3,399.6-4.7,553c-104.1,86.4-227.7,125.7-359.3,144.1C1277.4,869.4,1231.4,871,1185.3,871.3L1185.3,871.3z
		 M1186.8,817c64.5-0.7,128.9-4,192.5-15.8c106.8-19.9,207.9-53.6,291.1-127.4c141.3-125.4,149-324.1,18.4-460.3
		c-53.3-55.5-116.7-96-187.6-124.7c-153.1-61.9-311.7-72-473.1-44.9c-133,22.4-253.3,72.3-348,172.4
		c-123.9,131-119.6,318.7,9.7,444.9c37,36.1,79.8,63.7,126.5,85.3C933.9,800.7,1059,816.1,1186.8,817L1186.8,817z"/>
	<path class="st0" d="M1205.2,235.4l207.9,124.9c-0.1,34.8-0.8,116.6-0.8,116.6c-7.7,114.1,69.4,136.4,150.1,111.5
		c91.3-28.1,140.9-131.4,112.7-231.9c-20.6-73.5-70.3-123.2-132.6-162.4c-97.4-61.3-206.4-81.3-318.9-87
		c-130-6.6-255.4,12.6-371.6,74.1C771.2,224,709.7,284.5,691.8,379.1c-23.3,123.3,75.2,234.4,191.3,215.8c49-7.9,75.1-37.3,76.1-88
		c0.8-45.1,0.7-108.6-0.1-153.7l208.2-118.8c-1.6,109.6,2.2,247.2-3.9,356.7c-4.4,79.2-51.8,127.6-130.5,137.2
		c-98,12-189.6-4.6-273.2-58.3c-147-94.6-178.5-281.1-70.9-419.6c67.2-86.5,159.3-132,263.1-157.9c191.1-47.7,379.1-42.7,562.8,33
		C1621,169.3,1702,239.6,1735,353.2c32.1,110.5,4.7,208.8-81.3,284.2c-97.6,85.5-214,112.4-341.1,84.8
		c-61.7-13.4-97.7-54.7-102.5-118C1200.9,483.6,1208.1,362.7,1205.2,235.4L1205.2,235.4z"/>
</g>
</svg>
