<?xml version="1.0" encoding="UTF-8"?>
<svg id="Camada_1" xmlns="http://www.w3.org/2000/svg" viewBox="0 0 800 319.6">
  <defs>
    <style>
      .cls-1 {
        fill: #fff;
      }
    </style>
  </defs>
  <path class="cls-1" d="M137.78,0h65.04v170.64c0,29.38-12.6,90.92-102.81,90.92S0,204.21,0,172.05v-31.48h62.95v30.77c0,18.88,12.58,36.37,36.36,36.37s38.47-13.28,38.47-35.66V0ZM303.49,71.33c-59.45,0-86.02,54.56-86.02,101.4s30.07,92.32,91.61,92.32c53.85.7,89.53-34.27,89.53-60.14h-59.45s-7,16.78-27.98,16.78-32.86-11.89-32.86-40.56h120.98c0-90.21-44.75-109.8-95.8-109.8M278.32,144.77c0-18.88,7.68-34.28,29.37-34.28s32.17,16.8,32.17,34.28h-61.54,0ZM497.96,71.33c-59.44,0-86.03,54.56-86.03,101.4s30.08,92.32,91.62,92.32c53.86.7,89.52-34.27,89.52-60.14h-59.44s-7,16.78-27.98,16.78-32.87-11.89-32.87-40.56h120.99c0-90.21-44.75-109.8-95.81-109.8M472.78,144.77c0-18.88,7.7-34.28,29.36-34.28s32.18,16.8,32.18,34.28h-61.54,0ZM669.93,319.6v-74.85c2.51,3.34,3.94,4.95,8.39,8.4,6.97,5.44,18.88,14.7,45.45,14.7,48.25,0,76.23-41.97,76.23-99.32,0-74.13-46.85-95.11-76.93-95.11s-41.39,13.99-45.45,18.89c-4.7,5.64-6.24,8.85-8.4,13.5v-27.5h-60.14v241.29h60.85ZM668.53,170.63c.7-35.67,14.68-50.35,33.56-50.35,30.78,0,36.36,23.78,36.36,48.25s-4.19,56.65-33.56,56.65-37.06-18.88-36.36-54.55"/>
</svg>