<?xml version="1.0" encoding="UTF-8"?><svg id="Camada_1" xmlns="http://www.w3.org/2000/svg" xmlns:xlink="http://www.w3.org/1999/xlink" viewBox="0 0 1012.65 238.93"><defs><linearGradient id="Gradiente_sem_nome_3" x1="29.86" y1="1110.12" x2="209.07" y2="960.03" gradientTransform="translate(0 1154.54) scale(1 -1)" gradientUnits="userSpaceOnUse"><stop offset="0" stop-color="#fff"/><stop offset=".1" stop-color="#e5e6e4"/><stop offset=".1" stop-color="#cbcece"/><stop offset=".2" stop-color="#b3b9bb"/><stop offset=".2" stop-color="#a3aaad"/><stop offset=".3" stop-color="#99a1a5"/><stop offset=".3" stop-color="#969ea2"/><stop offset=".4" stop-color="#80888d"/><stop offset=".5" stop-color="#667075"/><stop offset=".6" stop-color="#535c63"/><stop offset=".7" stop-color="#475158"/><stop offset=".8" stop-color="#434d54"/><stop offset="1" stop-color="#475157"/></linearGradient><linearGradient id="Gradiente_sem_nome_2" x1="35.36" y1="1105.79" x2="203.36" y2="964.67" gradientTransform="translate(0 1154.54) scale(1 -1)" gradientUnits="userSpaceOnUse"><stop offset="0" stop-color="#0b1f2a"/><stop offset=".2" stop-color="#333f47"/><stop offset=".5" stop-color="#777f82"/><stop offset=".5" stop-color="#80878b"/><stop offset=".7" stop-color="#b1b6b6"/><stop offset=".8" stop-color="#d0d3d1"/><stop offset=".8" stop-color="#dcdedb"/><stop offset="1" stop-color="#f9f9f9"/></linearGradient><linearGradient id="Gradiente_sem_nome_4" x1="1903.59" y1="476.7" x2="1985.35" y2="251.95" gradientTransform="translate(2063.89 -244.99) rotate(-180) scale(1 -1)" gradientUnits="userSpaceOnUse"><stop offset="0" stop-color="#dfe1df"/><stop offset=".1" stop-color="#bfc3c2"/><stop offset=".3" stop-color="#999fa0"/><stop offset=".5" stop-color="#7d8285"/><stop offset=".7" stop-color="#687074" stop-opacity="0"/><stop offset=".8" stop-color="#5b6469" stop-opacity="0"/><stop offset="1" stop-color="#576065" stop-opacity="0"/></linearGradient><linearGradient id="Gradiente_sem_nome_4-2" x1="67.95" y1="1124.3" x2="170.98" y2="945.85" gradientTransform="translate(0 1154.54) scale(1 -1)" xlink:href="#Gradiente_sem_nome_4"/><linearGradient id="Gradiente_sem_nome_5" x1="166.09" y1="1007.48" x2="159.74" y2="997.02" gradientTransform="translate(0 1154.54) scale(1 -1)" gradientUnits="userSpaceOnUse"><stop offset="0" stop-color="#27343c"/><stop offset="1" stop-color="#00111e" stop-opacity="0"/></linearGradient><linearGradient id="Gradiente_sem_nome_6" x1="147.77" y1="1045.86" x2="137.31" y2="1062.66" gradientTransform="translate(0 1154.54) scale(1 -1)" gradientUnits="userSpaceOnUse"><stop offset=".1" stop-color="#02131f"/><stop offset=".9" stop-color="#02131f" stop-opacity="0"/></linearGradient><linearGradient id="Gradiente_sem_nome_7" x1="119.4" y1="1018.89" x2="103.72" y2="1014.41" gradientTransform="translate(0 1154.54) scale(1 -1)" gradientUnits="userSpaceOnUse"><stop offset=".2" stop-color="#02131f"/><stop offset=".9" stop-color="#02131f" stop-opacity="0"/></linearGradient><linearGradient id="Gradiente_sem_nome_8" x1="77.62" y1="998.1" x2="75.38" y2="1003.7" gradientTransform="translate(0 1154.54) scale(1 -1)" gradientUnits="userSpaceOnUse"><stop offset="0" stop-color="#02131f"/><stop offset=".1" stop-color="#02131f"/><stop offset="1" stop-color="#02131f" stop-opacity="0"/></linearGradient><linearGradient id="Gradiente_sem_nome_9" x1="132.91" y1="1090.28" x2="120.22" y2="1088.78" gradientTransform="translate(0 1154.54) scale(1 -1)" gradientUnits="userSpaceOnUse"><stop offset=".3" stop-color="#02131f"/><stop offset=".3" stop-color="#02131f"/><stop offset=".8" stop-color="#02131f" stop-opacity="0"/></linearGradient><linearGradient id="Gradiente_sem_nome_10" x1="133.31" y1="1090.49" x2="124.72" y2="1089.37" gradientTransform="translate(0 1154.54) scale(1 -1)" gradientUnits="userSpaceOnUse"><stop offset=".4" stop-color="#27343c"/><stop offset="1" stop-color="#3b474e" stop-opacity="0"/></linearGradient><linearGradient id="Gradiente_sem_nome_11" x1="-1.35" y1="1031.97" x2="102.81" y2="971.87" gradientTransform="translate(0 1154.54) scale(1 -1)" gradientUnits="userSpaceOnUse"><stop offset="0" stop-color="#24303a" stop-opacity="0"/><stop offset="0" stop-color="#25323b" stop-opacity="0"/><stop offset=".1" stop-color="#27343c"/></linearGradient><linearGradient id="Gradiente_sem_nome_12" x1="119.28" y1="1014.92" x2="119.28" y2="1032.84" gradientTransform="translate(0 1154.54) scale(1 -1)" gradientUnits="userSpaceOnUse"><stop offset=".3" stop-color="#a3a9ad"/><stop offset="1" stop-color="#a3a9ad" stop-opacity="0"/></linearGradient><linearGradient id="Gradiente_sem_nome_14" x1="177.89" y1="1145.96" x2="177.89" y2="918.22" gradientTransform="translate(0 1154.54) scale(1 -1)" gradientUnits="userSpaceOnUse"><stop offset="0" stop-color="#dcdedb"/><stop offset="0" stop-color="#c3c7c5"/><stop offset="0" stop-color="#9ca2a3"/><stop offset="0" stop-color="#80878a"/><stop offset="0" stop-color="#71797d"/><stop offset="0" stop-color="#6b7378"/><stop offset=".2" stop-color="#333f47"/><stop offset=".5" stop-color="#27343c"/><stop offset=".8" stop-color="#333f47"/><stop offset="1" stop-color="#434d54"/></linearGradient><linearGradient id="Gradiente_sem_nome_15" x1="213.88" y1="1124.33" x2="163.48" y2="1050.41" gradientTransform="translate(0 1154.54) scale(1 -1)" gradientUnits="userSpaceOnUse"><stop offset=".7" stop-color="#27343c"/><stop offset=".7" stop-color="#2b373f"/><stop offset=".7" stop-color="#36424a"/><stop offset=".7" stop-color="#49545b"/><stop offset=".8" stop-color="#646d73" stop-opacity="0"/><stop offset=".8" stop-color="#848b90" stop-opacity="0"/><stop offset=".8" stop-color="#aeb3b6" stop-opacity="0"/><stop offset=".8" stop-color="#dfe1e2" stop-opacity="0"/><stop offset=".8" stop-color="#fff" stop-opacity="0"/></linearGradient></defs><path id="outer" d="m236.32,119.47c0,64.59-52.27,116.85-116.85,116.85S2.61,184.05,2.61,119.47,54.88,2.61,119.47,2.61s116.85,52.27,116.85,116.85ZM119.47,9.71C58.61,9.71,9.71,58.61,9.71,119.47s49.28,109.76,109.76,109.76,109.76-49.28,109.76-109.76S180.32,9.71,119.47,9.71Z" style="fill:url(#Gradiente_sem_nome_3);"/><path d="m119.47,9.71C58.61,9.71,9.71,58.61,9.71,119.47s49.28,109.76,109.76,109.76,109.76-49.28,109.76-109.76S180.32,9.71,119.47,9.71Zm0,212.43c-56.75,0-102.67-45.92-102.67-102.67S62.72,16.8,119.47,16.8s102.67,45.92,102.67,102.67-45.92,102.67-102.67,102.67Z" style="fill:url(#Gradiente_sem_nome_2);"/><path d="m119.47,236.32c64.59,0,116.85-52.27,116.85-116.85S184.05,2.61,119.47,2.61,2.61,54.88,2.61,119.47c0,64.59,52.27,116.85,116.85,116.85h0ZM119.47,0c65.71,0,119.47,53.76,119.47,119.47s-53.76,119.47-119.47,119.47S0,185.17,0,119.47,53.76,0,119.47,0h0Z" style="fill:url(#Gradiente_sem_nome_4); isolation:isolate; opacity:.4;"/><path d="m8.21,119.84C8.21,58.61,57.87,8.21,119.47,8.21h0c61.6,0,111.25,50.03,111.25,111.63h0c0,61.23-49.65,110.88-111.25,110.88h0c-61.6,0-111.25-49.65-111.25-110.88h0ZM42.93,42.93C23.15,62.72,10.83,89.97,10.83,119.84h0c0,29.87,12.32,57.12,31.73,76.53h0c19.79,19.41,47.04,31.73,76.91,31.73h0c29.87,0,57.12-11.95,76.53-31.73h0c19.79-19.41,31.73-46.67,31.73-76.53h0c0-29.87-12.32-57.12-31.73-76.91h0c-19.41-19.79-46.67-32.11-76.53-32.11h0c-29.87,0-57.12,12.32-76.53,32.11h0Z" style="fill:#fff;"/><path d="m119.47,222.51c-27.63,0-53.39-10.83-72.8-30.24-19.41-19.41-30.24-45.17-30.24-72.8s10.83-53.39,30.24-72.8c19.41-19.41,45.17-30.24,72.8-30.24s53.39,10.83,72.8,30.24c19.41,19.41,30.24,45.17,30.24,72.8s-10.83,53.39-30.24,72.8c-19.41,19.41-45.17,30.24-72.8,30.24h0Zm0-2.99c26.51,0,51.89-10.45,70.56-29.12,19.04-19.04,29.12-44.05,29.12-70.56s-10.45-51.89-29.12-70.56c-19.04-19.04-44.05-29.12-70.56-29.12s-51.89,10.45-70.56,29.12c-19.04,18.29-29.49,43.68-29.49,70.19s10.45,51.89,29.12,70.56c19.04,19.04,44.43,29.49,70.93,29.49h0Z" style="fill:url(#Gradiente_sem_nome_4-2); isolation:isolate; opacity:.4;"/><path d="m210.19,168c-1.87-1.49-73.92-58.61-73.92-58.61L119.47,13.44c-1.12.37-2.61,1.49-3.36,2.99l-11.95,93.33-74.29,57.12s-1.49,1.87-2.24,2.99c-.37.75-.37,1.87-.37,2.99h0l91.84-37.71,91.84,37.71h0c.75-1.87,0-3.73-.75-4.85Z" style="fill:#fff;"/><path d="m120.21,122.45l-.75,17.17,84.37,33.97c2.99,1.49,5.23.75,7.47-.75l-89.97-50.77c-.37-.37-1.12,0-1.12.37Z" style="fill:#565f64;"/><path d="m120.21,122.45s4.85,8.59,10.45,14.56c7.84,8.59,18.29,14.56,18.29,14.56l54.88,22.03c2.99,1.49,5.23.75,7.47-.75l-89.97-50.77c-.37-.37-1.12,0-1.12.37Z" style="fill:url(#Gradiente_sem_nome_5);"/><path d="m210.93,169.49c0-.37-.37-.75-.75-1.49l-76.91-56.37-10.45,6.72s.75.37,1.12,0c1.12-.37,3.36-.75,5.6,0,1.87.75,81.39,51.52,81.39,51.52v-.37Z" style="fill:rgba(162,168,172,.6);"/><path d="m208.32,166.13l-71.68-56.75h0l-3.36,2.24,76.91,56.75c-.37-.75-1.12-1.49-1.87-2.24Z" style="fill:#333e46;"/><path d="m121.33,116.85l-.37.37s0,.75.75.37c.37-.37,11.2-5.97,14.93-8.21l-13.07-89.6c-.37-3.36-1.87-4.85-4.48-5.97l1.49,103.79.75-.75Z" style="fill:#565f64;"/><path d="m114.99,19.79v4.85l-8.21,82.51c0,1.12.37,2.24,1.49,2.99l4.85,3.73,3.36-91.09.37-7.09c-1.12.75-1.49,2.24-1.87,4.11Z" style="fill:rgba(162,168,172,.6);"/><path d="m110.51,115.36l-4.48-3.73-75.79,54.88s-2.24,1.49-2.61,2.99h0l2.61-1.49h0l79.52-50.03c1.49-.75,1.87-1.49.75-2.61Z" style="fill:rgba(162,168,172,.6);"/><path d="m118.35,122.45c0-.37-.37-.75-.75-.37l-90.35,51.15c2.24,1.49,4.48,1.87,7.47.75l84.37-33.97-.75-17.55Z" style="fill:#565f64;"/><path d="m120.96,117.23l.37-.37-.37.37h0s0,.37.37.37h.37c.37-.37,11.2-5.97,14.93-8.21l-1.49-10.83h0l-11.57-78.77c0-1.49-.37-2.61-1.12-3.36,0,0,5.6,75.41,5.6,83.63,0,10.83-7.09,17.17-7.09,17.17Z" style="fill:url(#Gradiente_sem_nome_6);"/><path d="m118.35,122.45c0-.37-.37-.75-.75-.37l-90.35,51.15c2.24,1.49,4.48,1.87,7.47.75l84.37-33.97-.75-17.55Z" style="fill:url(#Gradiente_sem_nome_7); fill-opacity:.8;"/><path d="m34.72,173.6l84.37-33.97-.75-16.43c-1.49,4.48-4.11,9.33-11.2,13.07h0c-5.23,2.99-55.25,27.63-73.17,36.21-1.12.75-2.61,1.12-3.36,1.49,1.49.75,2.61.37,4.11-.37Z" style="fill:url(#Gradiente_sem_nome_8); isolation:isolate; opacity:.8;"/><path d="m121.33,116.85l-.37.37s0,.75.75.37c.37-.37,11.2-5.97,14.93-8.21l-13.07-89.6c-.37-3.36-1.87-4.85-4.48-5.97l1.49,103.79.75-.75Z" style="fill:url(#Gradiente_sem_nome_9);"/><path d="m121.33,116.85l-.37.37s0,.75.75.37c.37-.37,11.2-5.97,14.93-8.21l-13.07-89.6c-.37-3.36-1.87-4.85-4.48-5.97l1.49,103.79.75-.75Z" style="fill:url(#Gradiente_sem_nome_10);"/><path d="m19.04,165.76c-2.61-5.97-17.55-35.09-1.12-91.09h-6.35c-3.36,11.2-5.97,17.92-7.47,28,0,0-.75,3.73-1.12,7.84s-.37,6.35-.37,8.96c0,22.4,5.6,35.47,5.6,35.47,5.97,18.67,16.43,35.47,30.61,48.16,12.32,10.83,31.36,19.04,47.04,22.03-2.61-.37-47.41-19.41-66.83-59.36Z" style="fill:url(#Gradiente_sem_nome_11);"/><path d="m120.96,121.71h-3.36c.37,0,.75,0,.75.37l.75,17.17h.37l.75-17.17c0-.37.37-.75.75-.37h0Z" style="fill:url(#Gradiente_sem_nome_12);"/><path d="m156.8,8.59c39.2,14.93,76.16,56,76.16,107.89,0,62.72-50.03,113.87-113.49,113.87v5.97c63.47,0,116.85-52.27,116.85-116.85,0-51.52-32.85-94.83-79.52-110.88Z" style="fill:url(#Gradiente_sem_nome_14);"/><path d="m219.52,75.41C193.39,15.31,134.4,11.95,131.04,11.57h-.37c45.17,8.21,73.92,37.71,84,68.69v.37c4.48,11.95,6.72,24.64,7.09,38.45.37,13.07-2.61,27.63-8.21,41.07-.37,1.87-.75,4.11-1.12,4.11h5.97c17.92-33.6,10.08-67.57,1.12-88.85Z" style="fill:url(#Gradiente_sem_nome_15);"/><path d="m8.21,119.84C8.21,58.61,57.87,8.21,119.47,8.21h0c61.6,0,111.25,50.03,111.25,111.63h0c0,61.23-49.65,110.88-111.25,110.88h0c-61.6,0-111.25-49.65-111.25-110.88h0ZM42.93,42.93C23.15,62.72,10.83,89.97,10.83,119.84h0c0,29.87,12.32,57.12,31.73,76.53h0c19.79,19.41,47.04,31.73,76.91,31.73h0c29.87,0,57.12-11.95,76.53-31.73h0c19.79-19.41,31.73-46.67,31.73-76.53h0c0-29.87-12.32-57.12-31.73-76.91h0c-19.41-19.79-46.67-32.11-76.53-32.11h0c-29.87,0-57.12,12.32-76.53,32.11h0Z" style="fill:#f9f9f9;"/><path d="m29.49,167.25h0l76.16-54.88c4.11,2.24,10.83,5.23,11.57,5.23.75.37.75-.37.75-.37l-9.33-7.84c-1.12-.75-1.49-1.87-1.49-2.99l8.96-89.97c-.37.37-.37,1.12-.75,1.49-.37.75-.37,1.12-.37,1.87l-13.07,89.97-71.68,56.37c-.37.37-.75.75-.75,1.12Z" style="fill:#333f47;"/><path d="m355.41,170.24c.52,1.56,1.4,2.65,2.63,3.27,1.23.62,3.27,1.07,6.11,1.35v3.12c-3.5-.28-6.32-.5-8.45-.64s-4.19-.21-6.18-.21h-.28c-3.41,0-8.52.28-15.34.85v-3.12c3.12-.28,5.35-.71,6.68-1.28,1.33-.57,2.2-1.63,2.63-3.2.43-1.56.59-4.14.5-7.74l-1.99-68.32-24.71,81.53h-1.7l-24.29-81.38-2.13,68.18c-.1,3.6.07,6.18.5,7.74.43,1.56,1.3,2.63,2.63,3.2,1.32.57,3.55.99,6.68,1.28v3.12c-5.4-.57-9.42-.85-12.07-.85h-.14c-1.99,0-5.73.28-11.22.85v-3.12c2.84-.28,4.88-.73,6.11-1.35,1.23-.61,2.11-1.7,2.63-3.27.52-1.56.83-4.09.92-7.6l1.99-64.77c.09-3.6-.05-6.18-.43-7.74-.38-1.56-1.16-2.63-2.34-3.2-1.19-.57-3.2-.99-6.04-1.28v-3.12c6.91.57,11.31.85,13.21.85,3.03,0,5.59-.14,7.67-.43l20.74,70.16,21.16-70.16c1.99.28,4.4.43,7.24.43,1.04,0,3.98-.14,8.81-.43.66,0,2.13-.09,4.4-.28v3.12c-2.84.28-4.85.71-6.04,1.28-1.19.57-1.97,1.61-2.34,3.12-.38,1.52-.52,4.07-.43,7.67l1.99,64.77c.09,3.5.4,6.04.92,7.6Z" style="fill:#fff;"/><path d="m381.19,142.62v1.99c0,10.23,1.21,17.82,3.62,22.8s6.23,7.46,11.43,7.46c4.26,0,7.83-1.73,10.72-5.18,2.89-3.46,4.52-8.21,4.9-14.27h3.55c-.47,7.39-2.58,13.19-6.32,17.4-3.74,4.21-8.59,6.32-14.56,6.32-7.77,0-13.68-3.22-17.75-9.66-4.07-6.44-6.11-14.72-6.11-24.86,0-7.01,1.04-13.14,3.12-18.39,2.08-5.26,4.9-9.3,8.45-12.14,3.55-2.84,7.41-4.26,11.58-4.26s7.74,1.28,11.01,3.83c3.27,2.56,5.85,6.2,7.74,10.94,1.89,4.74,2.84,10.32,2.84,16.76v1.28h-34.23Zm3.76-22.58c-2.04,4.45-3.24,10.79-3.62,19.03h24.15c0-7.95-1.02-14.23-3.05-18.82-2.04-4.59-5-6.89-8.88-6.89s-6.56,2.23-8.59,6.68Z" style="fill:#fff;"/><path d="m463.28,112.79c1.89,1.99,2.84,4.45,2.84,7.39,0,1.99-.43,3.62-1.28,4.9-.85,1.28-2.18,1.92-3.98,1.92-1.42,0-2.61-.43-3.55-1.28-.95-.85-1.42-1.99-1.42-3.41,0-.57.07-1.21.21-1.92.14-.71.21-1.3.21-1.78,0-2.56-1.23-3.83-3.69-3.83-3.03,0-5.59,2.06-7.67,6.18-2.08,4.12-3.12,9.3-3.12,15.55v27.55c0,3.12.24,5.38.71,6.75.47,1.37,1.35,2.32,2.63,2.84,1.28.52,3.43.92,6.46,1.21v3.12c-5.11-.57-9.75-.85-13.92-.85h-.85c-3.69,0-7.91.28-12.64.85v-3.12c2.37-.28,4.05-.69,5.04-1.21.99-.52,1.68-1.49,2.06-2.91.38-1.42.57-3.64.57-6.68v-38.92c0-2.93-.19-5.11-.57-6.53-.38-1.42-1.14-2.41-2.27-2.98-1.14-.57-2.94-.95-5.4-1.14v-2.98c7.01-.19,12.4-.57,16.19-1.14h1.42v10.79c1.42-3.6,3.34-6.39,5.75-8.38,2.41-1.99,5.14-2.98,8.17-2.98,3.5,0,6.2.99,8.1,2.98Z" style="fill:#fff;"/><path d="m513.14,155.4c-.57,7.48-2.51,13.3-5.82,17.47-3.32,4.17-7.72,6.25-13.21,6.25-7.01,0-12.5-3.27-16.48-9.8-3.98-6.53-5.97-14.77-5.97-24.71,0-7.01,1.09-13.14,3.27-18.39,2.18-5.26,5.11-9.3,8.81-12.14,3.69-2.84,7.72-4.26,12.07-4.26,2.46,0,4.69.52,6.68,1.56,1.99,1.04,3.69,2.41,5.11,4.12l2.27-6.11h2.27v23.72h-2.7c-1.04-6.72-2.68-11.69-4.9-14.91-2.23-3.22-5.18-4.83-8.88-4.83-4.45,0-7.81,2.72-10.08,8.17-2.27,5.45-3.41,13.14-3.41,23.08s1.18,17,3.55,22.3c2.37,5.3,5.87,7.95,10.51,7.95,3.69,0,6.75-1.7,9.16-5.11s3.81-8.19,4.19-14.35h3.55Z" style="fill:#fff;"/><path d="m533.16,142.62v1.99c0,10.23,1.21,17.82,3.62,22.8s6.23,7.46,11.43,7.46c4.26,0,7.83-1.73,10.72-5.18,2.89-3.46,4.52-8.21,4.9-14.27h3.55c-.47,7.39-2.58,13.19-6.32,17.4-3.74,4.21-8.59,6.32-14.56,6.32-7.77,0-13.68-3.22-17.75-9.66-4.07-6.44-6.11-14.72-6.11-24.86,0-7.01,1.04-13.14,3.12-18.39,2.08-5.26,4.9-9.3,8.45-12.14,3.55-2.84,7.41-4.26,11.58-4.26s7.74,1.28,11.01,3.83c3.27,2.56,5.85,6.2,7.74,10.94,1.89,4.74,2.84,10.32,2.84,16.76v1.28h-34.23Zm3.76-22.58c-2.04,4.45-3.24,10.79-3.62,19.03h24.15c0-7.95-1.02-14.23-3.05-18.82-2.04-4.59-5-6.89-8.88-6.89s-6.56,2.23-8.59,6.68Z" style="fill:#fff;"/><path d="m624.2,170.03c.38,1.42,1.14,2.41,2.27,2.98,1.14.57,2.93.95,5.4,1.14v2.98c-7.01.19-12.41.57-16.19,1.14h-1.28v-10.79c-1.7,3.79-3.83,6.68-6.39,8.66-2.56,1.99-5.4,2.98-8.52,2.98-4.45,0-8.36-1.42-11.72-4.26-3.36-2.84-5.97-6.89-7.81-12.14-1.85-5.25-2.77-11.38-2.77-18.39s1.07-12.85,3.2-18.11c2.13-5.26,4.95-9.3,8.45-12.14,3.5-2.84,7.24-4.26,11.22-4.26,5.97,0,10.51,3.12,13.63,9.37v-23.01c0-2.93-.19-5.11-.57-6.53-.38-1.42-1.14-2.41-2.27-2.98-1.14-.57-2.94-.95-5.4-1.14v-2.98c7.01-.19,12.4-.57,16.19-1.14h1.99v82.09c0,2.94.19,5.11.57,6.53Zm-13.63-2.91c2.37-5.16,3.55-12.8,3.55-22.94s-1.21-17.45-3.62-22.8c-2.41-5.35-5.71-8.02-9.87-8.02-8.62,0-12.92,10.27-12.92,30.82,0,9.47,1.11,16.95,3.34,22.44,2.22,5.49,5.56,8.24,10.01,8.24,3.98,0,7.15-2.58,9.52-7.74Z" style="fill:#fff;"/><path d="m649.77,142.62v1.99c0,10.23,1.21,17.82,3.62,22.8s6.23,7.46,11.43,7.46c4.26,0,7.83-1.73,10.72-5.18,2.89-3.46,4.52-8.21,4.9-14.27h3.55c-.47,7.39-2.58,13.19-6.32,17.4-3.74,4.21-8.59,6.32-14.56,6.32-7.77,0-13.68-3.22-17.75-9.66-4.07-6.44-6.11-14.72-6.11-24.86,0-7.01,1.04-13.14,3.12-18.39,2.08-5.26,4.9-9.3,8.45-12.14,3.55-2.84,7.41-4.26,11.58-4.26s7.74,1.28,11.01,3.83c3.27,2.56,5.85,6.2,7.74,10.94,1.89,4.74,2.84,10.32,2.84,16.76v1.28h-34.23Zm3.76-22.58c-2.04,4.45-3.24,10.79-3.62,19.03h24.15c0-7.95-1.02-14.23-3.05-18.82-2.04-4.59-5-6.89-8.88-6.89s-6.56,2.23-8.59,6.68Z" style="fill:#fff;"/><path d="m732.85,159.81c0,3.41-.85,6.6-2.56,9.59-1.7,2.98-4.05,5.35-7.03,7.1-2.98,1.75-6.27,2.63-9.87,2.63-3.03,0-5.82-.57-8.38-1.7-2.56-1.14-4.55-2.65-5.97-4.54l-2.13,6.68h-2.27v-24.15h2.7c1.89,13.45,7.1,20.17,15.62,20.17,3.79,0,6.77-1.07,8.95-3.2,2.18-2.13,3.27-4.99,3.27-8.59,0-3.12-.88-5.73-2.63-7.81-1.75-2.08-4.38-4.07-7.88-5.97l-7.81-4.26c-3.98-2.18-6.89-4.57-8.73-7.17-1.85-2.6-2.77-6.27-2.77-11.01,0-3.6.83-6.75,2.49-9.44,1.66-2.7,3.81-4.76,6.46-6.18,2.65-1.42,5.44-2.13,8.38-2.13,2.65,0,5.09.57,7.31,1.7,2.22,1.14,4,2.56,5.33,4.26l2.27-6.39h2.27v21.59h-2.7c-.85-5.11-2.46-9.33-4.83-12.64-2.37-3.31-5.4-4.97-9.09-4.97-3.32,0-5.92.99-7.81,2.98-1.9,1.99-2.84,4.78-2.84,8.38,0,2.75.76,5.02,2.27,6.82,1.51,1.8,3.93,3.6,7.24,5.4l9.23,4.97c7.67,4.07,11.5,10.04,11.5,17.9Z" style="fill:#fff;"/><path d="m771.06,135.38v5.68h-28.55v-5.68h28.55Z" style="fill:#fff;"/><path d="m832.77,135.8c3.93,4.36,5.89,9.8,5.89,16.33,0,5.11-1.19,9.59-3.55,13.42-2.37,3.83-5.61,6.82-9.73,8.95s-8.64,3.2-13.56,3.2h-32.67v-3.12c2.75-.19,4.73-.54,5.97-1.07,1.23-.52,2.08-1.54,2.56-3.05.47-1.51.71-3.93.71-7.24v-65.9c0-3.31-.24-5.73-.71-7.24-.47-1.51-1.33-2.53-2.56-3.05-1.23-.52-3.22-.87-5.97-1.07v-3.12h28.55c8.24,0,14.75,2.06,19.53,6.18,4.78,4.12,7.17,9.64,7.17,16.55,0,5.3-1.54,9.87-4.62,13.71-3.08,3.83-7.13,6.6-12.14,8.31,6.15,1.14,11.2,3.88,15.13,8.24Zm-33.59-49v39.91h6.53c5.78,0,10.09-1.75,12.93-5.26,2.84-3.5,4.26-8.43,4.26-14.77s-1.42-11.24-4.26-14.7c-2.84-3.46-7.15-5.18-12.93-5.18h-6.53Zm23.86,81.31c2.75-3.74,4.12-9.07,4.12-15.98s-1.37-12.09-4.12-15.84c-2.75-3.74-6.96-5.61-12.64-5.61h-11.22v37.35c0,2.18.43,3.67,1.28,4.47.85.81,2.74,1.21,5.68,1.21h4.26c5.68,0,9.89-1.87,12.64-5.61Z" style="fill:#fff;"/><path d="m859.4,142.62v1.99c0,10.23,1.21,17.82,3.62,22.8,2.41,4.97,6.22,7.46,11.43,7.46,4.26,0,7.83-1.73,10.72-5.18,2.89-3.46,4.52-8.21,4.9-14.27h3.55c-.47,7.39-2.58,13.19-6.32,17.4-3.74,4.21-8.59,6.32-14.56,6.32-7.76,0-13.68-3.22-17.75-9.66-4.07-6.44-6.11-14.72-6.11-24.86,0-7.01,1.04-13.14,3.12-18.39,2.08-5.26,4.9-9.3,8.45-12.14,3.55-2.84,7.41-4.26,11.58-4.26s7.74,1.28,11.01,3.83,5.85,6.2,7.74,10.94c1.89,4.74,2.84,10.32,2.84,16.76v1.28h-34.23Zm3.76-22.58c-2.04,4.45-3.24,10.79-3.62,19.03h24.15c0-7.95-1.02-14.23-3.05-18.82-2.04-4.59-5-6.89-8.88-6.89s-6.56,2.23-8.59,6.68Z" style="fill:#fff;"/><path d="m952.72,170.74c.38,1.42,1.07,2.39,2.06,2.91.99.52,2.67.92,5.04,1.21v3.12c-4.64-.57-8.86-.85-12.64-.85-3.5,0-7.53.28-12.07.85v-3.12c2.18-.28,3.74-.69,4.69-1.21.95-.52,1.58-1.47,1.92-2.84.33-1.37.5-3.62.5-6.75v-37.64c0-4.35-.73-7.48-2.2-9.37-1.47-1.89-3.62-2.84-6.46-2.84-3.79,0-6.98,1.7-9.59,5.11-2.61,3.41-3.91,7.72-3.91,12.92v31.81c0,3.12.17,5.38.5,6.75.33,1.37.97,2.32,1.92,2.84.95.52,2.51.92,4.69,1.21v3.12c-4.54-.57-8.57-.85-12.07-.85-3.69,0-7.91.28-12.64.85v-3.12c2.37-.28,4.05-.69,5.04-1.21.99-.52,1.68-1.49,2.06-2.91.38-1.42.57-3.64.57-6.68v-38.92c0-2.93-.19-5.11-.57-6.53-.38-1.42-1.14-2.41-2.27-2.98-1.14-.57-2.94-.95-5.4-1.14v-2.98c7.01-.19,12.4-.57,16.19-1.14h1.42v9.66c1.7-3.22,3.93-5.73,6.67-7.53,2.75-1.8,5.87-2.7,9.37-2.7,5.3,0,9.4,1.8,12.29,5.4,2.89,3.6,4.33,8.57,4.33,14.91v33.95c0,3.03.19,5.26.57,6.68Z" style="fill:#fff;"/><path d="m1009.1,156.82l-3.69,20.88h-40.48v-1.14l31.96-61.93h-10.65c-3.32,0-5.89.4-7.74,1.21-1.85.81-3.39,2.32-4.62,4.54-1.23,2.23-2.46,5.66-3.69,10.3h-2.98l3.69-19.46h38.06v1.14l-31.96,61.93h13.07c3.31,0,5.89-.45,7.74-1.35,1.85-.9,3.38-2.56,4.62-4.97,1.23-2.41,2.46-6.13,3.69-11.15h2.98Z" style="fill:#fff;"/></svg>