<?xml version="1.0" encoding="utf-8"?>
<!-- Generator: Adobe Illustrator 27.2.0, SVG Export Plug-In . SVG Version: 6.00 Build 0)  -->
<svg version="1.1" id="Camada_1" xmlns="http://www.w3.org/2000/svg" xmlns:xlink="http://www.w3.org/1999/xlink" x="0px" y="0px"
	 viewBox="0 0 509.1 52.3" style="enable-background:new 0 0 509.1 52.3;" xml:space="preserve">
<style type="text/css">
	.st0{fill:#FFFFFF;}
</style>
<g>
	<g>
		<path class="st0" d="M247,33.3c0,3.3-1.1,6.7-3.5,9.4c-1.8,2.2-3.8,3.7-6,4.6c-1.1,0.5-2.2,0.8-3.4,1c-2,0.4-4.3,0.6-6.9,0.6
			c-0.3,0-0.6,0-0.9,0c-0.1,0-0.2,0-0.3,0c-0.3,0-0.5,0-0.8,0l0,0c-0.4,0-0.8,0-1.2,0l0,0c-0.8,0-1.6-0.1-2.4-0.1l0,0
			c-0.6,0-1.2-0.1-1.8-0.1c-0.8-0.1-1.7-0.1-2.5-0.2c-3.4-0.3-6.6-0.7-9-1s-3.6-2.8-2.2-4.9c1.9-2.7,4.4-6.3,7.1-9.7
			c0.3,0.1,0.5,0.2,0.8,0.3c0.4,0.2,0.8,0.3,1.3,0.5c1.7,0.5,3.5,0.8,5.2,0.8c1.3,0,2.5-0.1,3.8-0.4c1.3-0.3,2.5-0.7,3.7-1.2
			c3.4-1.5,7.8-6.1,11.8-11.1c0.1-0.2,0.3-0.3,0.4-0.5c2.4,1.3,4.3,3.2,5.6,5.7C246.5,29,247,31.1,247,33.3z"/>
		<path class="st0" d="M246.4,9.7c-4.7,6.6-12.4,18-19.3,21.6c-4.2,1.9-8.9,2.1-13,0.4c-8.9-3.2-11.4-15-5.1-22
			c4.2-5,9-6.3,16.5-6.2c6.4-0.1,14,0.8,18.8,1.4C246.6,5.1,247.8,7.7,246.4,9.7z"/>
	</g>
	<g>
		<g>
			<path class="st0" d="M272.3,28.1l-4.5-1.2c-1.6-0.4-2.8-1-3.6-1.7c-0.9-0.7-1.3-1.7-1.3-3.1c0-1.3,0.5-2.4,1.5-3.3
				c1-0.8,2.5-1.3,4.6-1.3h8.3v2.4h-8.7c-1.1,0-1.9,0.2-2.4,0.6c-0.4,0.4-0.7,0.9-0.7,1.4c0,0.6,0.2,1.1,0.6,1.5s1.1,0.7,2.2,1
				l4.5,1.3c1.6,0.4,2.8,1,3.6,1.8c0.8,0.7,1.3,1.8,1.3,3.1c0,1.5-0.5,2.7-1.5,3.6c-1,0.9-2.5,1.3-4.5,1.3h-8.6v-2.4h8.8
				c1,0,1.8-0.2,2.3-0.6c0.5-0.4,0.7-1,0.7-1.7s-0.2-1.3-0.6-1.7C274.2,28.7,273.4,28.4,272.3,28.1z"/>
			<path class="st0" d="M281.8,35.4V17.6h2.7v17.9L281.8,35.4L281.8,35.4z"/>
			<path class="st0" d="M288.5,35.4l2.7-15c0.2-1,0.5-1.8,1-2.4c0.5-0.5,1.2-0.8,2.1-0.8c1,0,1.7,0.3,2.2,1c0.5,0.6,0.8,1.4,1.1,2.4
				l2.9,12.3c0,0.2,0.1,0.4,0.2,0.5s0.1,0.2,0.3,0.2c0.1,0,0.2-0.1,0.3-0.2c0-0.1,0.1-0.3,0.1-0.5l3-12.3c0.2-1,0.6-1.8,1.1-2.4
				s1.3-1,2.2-1c1,0,1.7,0.3,2.2,0.8s0.8,1.3,1,2.4l2.7,15h-2.9l-2.5-15.1c0-0.2-0.1-0.4-0.2-0.5s-0.2-0.1-0.3-0.1
				c-0.1,0-0.3,0-0.4,0.1s-0.2,0.3-0.2,0.5l-2.9,12.3c-0.2,1-0.6,1.8-1.1,2.3s-1.2,0.8-2.2,0.8s-1.7-0.3-2.2-0.9
				c-0.4-0.6-0.8-1.3-1-2.2l-2.9-12.3c-0.1-0.3-0.1-0.5-0.2-0.5c-0.1-0.1-0.2-0.1-0.3-0.1c-0.1,0-0.2,0-0.3,0.1
				c-0.1,0.1-0.2,0.3-0.2,0.5l-2.5,15.1H288.5z"/>
			<path class="st0" d="M332.9,22.5v1c0,1-0.2,1.8-0.5,2.4c-0.4,0.6-0.8,1.2-1.4,1.5c-0.6,0.4-1.3,0.6-2.1,0.8
				c-0.8,0.2-1.6,0.2-2.5,0.2H320v6.9h-2.7V17.6h9.1c0.9,0,1.7,0.1,2.5,0.2c0.8,0.2,1.5,0.4,2.1,0.8s1.1,0.9,1.4,1.5
				C332.7,20.7,332.9,21.6,332.9,22.5z M330,23.6v-1.1c0-0.9-0.2-1.5-0.7-1.9S328,20,326.8,20H320v6.2h6.8c1.2,0,2.1-0.2,2.5-0.6
				C329.8,25.1,330,24.5,330,23.6z"/>
			<path class="st0" d="M336.5,35.4V17.6h2.7v15.5h10.6v2.4L336.5,35.4L336.5,35.4z"/>
			<path class="st0" d="M352.9,35.4V17.6h14.3V20h-11.6v5.2h11.6v2.4h-11.6v5.5h11.6v2.4L352.9,35.4L352.9,35.4z"/>
			<path class="st0" d="M386.3,17.6c2.7,0,4.7,0.7,6.2,2c1.4,1.3,2.2,3.2,2.2,5.5V28c0,2.4-0.7,4.2-2.1,5.5s-3.5,2-6.3,2h-8V17.6
				H386.3z M386.6,19.9h-5.7V33h5.6c1.7,0,2.9-0.3,3.8-1s1.3-1.8,1.3-3.4v-4.2c0-1.6-0.4-2.7-1.3-3.4
				C389.5,20.3,388.2,19.9,386.6,19.9z"/>
			<path class="st0" d="M398.1,35.4V17.6h14.3V20h-11.6v5.2h11.6v2.4h-11.6v5.5h11.6v2.4L398.1,35.4L398.1,35.4z"/>
			<path class="st0" d="M431.8,35.4l-2.1-4.8h-10l-2.1,4.8h-2.9l6.7-15.3c0.4-0.9,0.8-1.6,1.2-2.1c0.4-0.5,1.1-0.8,2-0.8
				s1.6,0.3,2,0.8c0.5,0.5,0.8,1.2,1.2,1.9l6.8,15.5H431.8z M424,20.5l-3.2,7.6h7.9l-3.2-7.6c-0.1-0.3-0.2-0.5-0.3-0.6
				c-0.1-0.1-0.2-0.2-0.4-0.2c-0.1,0-0.3,0-0.4,0.1C424.2,20,424.1,20.2,424,20.5z"/>
			<path class="st0" d="M437.6,35.4V17.6h2.7v15.5H451v2.4L437.6,35.4L437.6,35.4z"/>
			<path class="st0" d="M454.1,35.4V17.6h14.3V20h-11.6v5.2h11.6v2.4h-11.6v5.5h11.6v2.4L454.1,35.4L454.1,35.4z"/>
			<path class="st0" d="M474.7,35.4H472v-8.9c0-0.4,0.2-0.8,0.5-1c0.3-0.3,0.7-0.4,1-0.4h8.2c1,0,1.8-0.2,2.2-0.5
				c0.4-0.3,0.6-0.9,0.6-1.8v-0.7c0-0.9-0.2-1.4-0.6-1.7c-0.4-0.3-1.1-0.5-2.2-0.5h-14.5v-2.4h13.9c0.9,0,1.7,0.1,2.4,0.2
				c0.8,0.1,1.4,0.4,2,0.7c0.6,0.3,1,0.8,1.3,1.4s0.5,1.3,0.5,2.3v0.6c0,1.8-0.6,3-1.7,3.7c-1.1,0.6-2.7,1-4.6,1h-1.5l7.7,8h-3.6
				l-7.8-8h-1.1L474.7,35.4L474.7,35.4z"/>
			<path class="st0" d="M499.4,28.1l-4.5-1.2c-1.6-0.4-2.8-1-3.6-1.7c-0.9-0.7-1.3-1.7-1.3-3.1c0-1.3,0.5-2.4,1.5-3.3
				c1-0.8,2.5-1.3,4.6-1.3h8.3v2.4h-8.7c-1.1,0-1.9,0.2-2.4,0.6c-0.4,0.4-0.7,0.9-0.7,1.4c0,0.6,0.2,1.1,0.6,1.5s1.1,0.7,2.2,1
				l4.5,1.3c1.6,0.4,2.8,1,3.6,1.8c0.8,0.7,1.3,1.8,1.3,3.1c0,1.5-0.5,2.7-1.5,3.6c-1,0.9-2.5,1.3-4.5,1.3h-8.6v-2.4h8.8
				c1,0,1.8-0.2,2.3-0.6c0.5-0.4,0.7-1,0.7-1.7s-0.2-1.3-0.6-1.7C501.3,28.7,500.5,28.4,499.4,28.1z"/>
		</g>
	</g>
	<g>
		<path class="st0" d="M19.7,22.5v1c0,1-0.2,1.8-0.5,2.4c-0.4,0.6-0.8,1.2-1.4,1.5c-0.6,0.4-1.3,0.6-2.1,0.8
			c-0.8,0.2-1.6,0.2-2.5,0.2H6.8v6.9H4.1V17.6h9.1c0.9,0,1.7,0.1,2.5,0.2c0.8,0.2,1.5,0.4,2.1,0.8s1.1,0.9,1.4,1.5
			S19.7,21.6,19.7,22.5z M16.8,23.6v-1.1c0-0.9-0.2-1.5-0.7-1.9S14.8,20,13.6,20H6.8v6.2h6.8c1.2,0,2.1-0.2,2.5-0.6
			C16.6,25.1,16.8,24.5,16.8,23.6z"/>
		<path class="st0" d="M40.6,27.9c0,1.2-0.2,2.2-0.5,3.2c-0.3,1-0.8,1.8-1.4,2.5c-0.6,0.7-1.5,1.2-2.4,1.6c-1,0.4-2.2,0.6-3.5,0.6
			h-2.4c-1.4,0-2.6-0.2-3.6-0.6c-1-0.4-1.8-0.9-2.5-1.6c-0.6-0.7-1.1-1.5-1.4-2.5s-0.5-2-0.5-3.2V25c0-1.2,0.2-2.3,0.5-3.2
			c0.3-1,0.8-1.8,1.4-2.5s1.5-1.2,2.5-1.6s2.2-0.5,3.6-0.5h2.4c1.4,0,2.5,0.2,3.5,0.5c1,0.4,1.8,0.9,2.4,1.6
			c0.6,0.7,1.1,1.5,1.4,2.5c0.3,1,0.5,2,0.5,3.2V27.9z M25.4,28.6c0,1.6,0.3,2.8,1,3.6c0.7,0.8,1.9,1.2,3.5,1.2H33
			c1.6,0,2.8-0.4,3.5-1.2s1-2,1-3.6v-4.2c0-1.6-0.3-2.8-1-3.6c-0.7-0.8-1.9-1.2-3.5-1.2h-3c-1.6,0-2.8,0.4-3.5,1.2
			c-0.7,0.8-1,2-1,3.6v4.2H25.4z"/>
		<path class="st0" d="M45.6,17.6l4.1,14.8c0.1,0.2,0.1,0.4,0.2,0.5s0.2,0.1,0.3,0.1c0.1,0,0.2,0,0.3-0.1s0.1-0.2,0.2-0.5l2.7-11.8
			c0.2-1,0.6-1.8,1-2.5c0.4-0.6,1.1-0.9,2.1-0.9s1.7,0.3,2.2,1c0.4,0.7,0.8,1.5,1,2.5l2.7,11.7c0.1,0.3,0.1,0.4,0.2,0.5
			C62.7,33,62.8,33,63,33c0.1,0,0.2-0.1,0.3-0.2c0.1-0.1,0.1-0.3,0.2-0.5l4.1-14.8h2.8l-4.2,15c-0.3,1-0.7,1.8-1.1,2.3
			c-0.5,0.6-1.2,0.8-2.1,0.8c-1,0-1.8-0.3-2.3-0.9c-0.5-0.6-0.8-1.4-1-2.3L57,20.7c0-0.2-0.1-0.4-0.2-0.5c-0.1-0.1-0.1-0.2-0.3-0.2
			c-0.1,0-0.2,0.1-0.3,0.2c0,0.1-0.1,0.3-0.1,0.5l-2.7,11.9c-0.2,1-0.5,1.7-1,2.3s-1.2,0.9-2.2,0.9S48.5,35.5,48,35
			s-0.8-1.3-1.1-2.3l-4.2-15h2.9V17.6z"/>
		<path class="st0" d="M73.9,35.4V17.6h14.3V20H76.6v5.2h11.6v2.4H76.6v5.5h11.6v2.4L73.9,35.4L73.9,35.4z"/>
		<path class="st0" d="M94.5,35.4h-2.7v-8.9c0-0.4,0.2-0.8,0.5-1c0.3-0.3,0.7-0.4,1-0.4h8.2c1,0,1.8-0.2,2.2-0.5
			c0.4-0.3,0.6-0.9,0.6-1.8v-0.7c0-0.9-0.2-1.4-0.6-1.7c-0.4-0.3-1.1-0.5-2.2-0.5H86.9v-2.4h13.9c0.9,0,1.7,0.1,2.4,0.2
			c0.8,0.1,1.4,0.4,2,0.7c0.6,0.3,1,0.8,1.3,1.4s0.5,1.3,0.5,2.3v0.6c0,1.8-0.6,3-1.7,3.7c-1.1,0.6-2.7,1-4.6,1h-1.5l7.7,8h-3.6
			l-7.8-8h-1.1L94.5,35.4L94.5,35.4z"/>
		<path class="st0" d="M110.8,35.4V17.6h14.3V20h-11.6v5.2h11.6v2.4h-11.6v5.5h11.6v2.4L110.8,35.4L110.8,35.4z"/>
		<path class="st0" d="M128.9,22.6h2.7V33h5.6c1.7,0,2.9-0.3,3.8-1c0.9-0.7,1.3-1.8,1.3-3.4v-4.2c0-1.6-0.4-2.7-1.3-3.4
			c-0.9-0.7-2.1-1-3.7-1h-14.2v-2.4H137c2.7,0,4.7,0.7,6.2,2c1.4,1.3,2.2,3.2,2.2,5.5V28c0,2.4-0.7,4.2-2.1,5.5
			c-1.4,1.3-3.5,2-6.3,2h-8L128.9,22.6L128.9,22.6z"/>
		<path class="st0" d="M163.6,17.6c2.1,0,3.7,0.3,4.9,0.9c1.1,0.6,1.7,1.8,1.7,3.5v0.8c0,0.8-0.2,1.5-0.6,2.1
			c-0.4,0.6-1.1,1.1-2.1,1.4c1.1,0.4,2,0.9,2.4,1.6c0.5,0.7,0.7,1.4,0.7,2.2V31c0,1.7-0.6,2.9-1.8,3.5s-2.9,0.9-5.1,0.9h-8.3V17.6
			H163.6z M164.5,19.9h-6.3v5.4h6.2c1,0,1.8-0.2,2.2-0.6s0.6-0.9,0.6-1.7v-1c0-0.7-0.2-1.2-0.7-1.5
			C166.2,20.1,165.5,19.9,164.5,19.9z M164.9,27.7h-6.7V33h6.7c1.1,0,1.8-0.2,2.2-0.5s0.6-0.9,0.6-1.5v-1.1c0-0.6-0.2-1.2-0.6-1.6
			C166.7,27.9,166,27.7,164.9,27.7z"/>
		<path class="st0" d="M179.4,35.4V29l-7.7-11.5h3.3l5.4,8.4c0.1,0.2,0.2,0.2,0.4,0.2s0.3-0.1,0.4-0.2l5.5-8.4h3.1L182.1,29v6.4
			H179.4z"/>
	</g>
</g>
</svg>
