<?xml version="1.0" encoding="UTF-8"?>
<svg id="katman_1" xmlns="http://www.w3.org/2000/svg" viewBox="0 0 321.6 336.63">
  <defs>
    <style>
      .cls-1, .cls-2 {
        fill: #fff;
      }

      .cls-2 {
        fill-rule: evenodd;
      }
    </style>
  </defs>
  <polygon class="cls-2" points="290 336.13 290 309.72 288.3 309.72 274.1 336.13 252.7 336.13 238.5 309.72 237.2 309.72 237.2 336.13 205.2 336.13 205.2 288.93 255.3 288.93 264.1 303.63 273.5 288.93 321.6 288.93 321.6 336.13 290 336.13"/>
  <path class="cls-2" d="M70.9,319.93s13.5-2.8,13.5-13.5c0-17.4-21.2-17.4-21.2-17.4H0v47.6h34.5v-15.7h5.3l11.8,15.4h36.7l-17.4-16.4ZM42.3,309.82h-8.1v-11.1h8.9c3.3.2,5.9,3,5.9,6.3,0,4.7-6.6,4.8-6.6,4.8h-.1Z"/>
  <path class="cls-2" d="M171.9,289.03h-51.7l-24.8,47.2h34.9l4.8-11.4h21.3l4.6,11.3h35.4l-24.5-47.1ZM138.4,314.03l7.5-14.7,7.4,14.7h-14.9Z"/>
  <path class="cls-1" d="M160.9.03h24.2c11.2.2,22.5.6,33.7,1,10.2.4,20.3.9,30.5,1.6,6.5.3,13,1,19.4,2.2,1.4.3,2.7.7,4,1.1,3.3,1.1,5.8,3.8,6.7,7.2.8,3,1.2,6.1,1.2,9.2v49.9c0,10.8-.3,21.6-.6,32.5-.3,10.1-.7,20.2-1.3,30.3s-1.1,19.9-2.5,29.8c-1.2,11.9-5.8,23.2-13.3,32.6-6.4,7.4-14,13.6-22.5,18.4-20.6,12.2-41.7,23.4-63.3,33.6-3.7,1.7-7.5,3.5-11.1,5.4-3.1,1.7-6.9,1.7-10,0-9.3-4.3-18.4-9-27.5-13.7-16.3-8.4-32.6-16.9-48.3-26.3-9.4-5.3-17.5-12.6-23.9-21.2-5.3-8-8.8-17-10.1-26.5-1.2-7.5-1.7-15-2.2-22.6-.6-9.4-1.1-18.8-1.5-28.2-.3-5.1-.3-10.2-.4-15.4-.7-25.6-.7-51.2-.6-76.8-.1-3.3.2-6.6.9-9.9.7-4.3,4-7.8,8.2-8.9,3.8-1,7.7-1.6,11.7-1.9,12.7-1.3,25.7-1.8,38.6-2.3,9.9-.4,19.7-.7,29.6-1,9.7-.2,20.2-.1,30.4-.1ZM160.9,6.43c-11.3,0-22.6,0-33.9.3-8.1.2-16.2.5-24.3.9-12.7.5-25.1,1.1-37.7,2.1-3.7.2-7.3.7-10.9,1.6-3,.6-5.4,3-5.9,6-.4,1.8-.6,3.7-.6,5.6,0,7.4,0,14.8-.3,22.2-.2,17.8-.3,35.6.3,53.4,0,3.2,0,6.3.3,9.7.7,12.1,1.2,24.3,2.2,36.4.6,7.6,1,15.2,2.3,22.7,1.2,8.3,4.4,16.2,9.1,23.2,6.3,8.4,14.4,15.4,23.6,20.5,15.9,9.5,32.5,18,49,26.5,8.1,4.2,16.2,8.4,24.5,12.2,1.4.7,3.1.7,4.5,0,5-2.4,10-4.7,15-7.1,16.7-8.1,33-16.7,49.1-26,7.7-4.1,15-8.8,21.9-14.1,9.9-7.7,16.8-18.7,19.5-30.9,1.7-8.6,2.7-17.3,3.2-26,.6-7.7.9-15.5,1.4-23.3.9-13.4,1.3-26.7,1.5-40.1,0-11.8.2-23.7,0-35.5-.2-7.6,0-15.3-.2-22.9,0-1.6-.1-3.2-.3-4.8-.3-3.9-3.2-7-7-7.7-3.2-.9-6.5-1.4-9.8-1.6-10.8-.7-21.5-1.4-32.2-1.9-13-.6-26.1-1-39.2-1.3-8.5-.4-16.8-.1-25.1-.1h0Z"/>
  <path class="cls-1" d="M129.5,144.93c1.3,3.6,2.5,6.7,3.6,9.8.3.6.9,1.1,1.5,1.3,3.2,1.8,6.3,3.6,9.5,5.4,1.1.5,1.8,1.5,1.9,2.7,1.3,8.9,2.7,17.7,4,26.6.1,1.4-.1,2.9-.4,4.3-.3,2.1-.6,4.2-1,6.3-.2.7.2,1.4.9,1.6h0c3.2,1.3,6.3,2.7,9.7,4.1.6.3,1.4.3,2,0,3.4-1.3,6.9-2.7,10.3-4,.7-.1,1.2-.8,1.1-1.5,0-.1,0-.2-.1-.3-.5-2.9-1-5.8-1.3-8.7,0-1.9.2-3.8.7-5.6,1.1-7.6,2.3-15.2,3.5-22.8.1-1.2.8-2.2,1.9-2.7,3.2-1.7,6.3-3.6,9.5-5.3.9-.4,1.5-1.2,1.8-2.1,1-2.9,2.1-5.8,3.3-9-2.3.4-4.3.9-6.3,1.2-1.5.2-2.8,1-3.6,2.3-1.3,1.8-2.7,3.6-4.1,5.3-.2.3-.4.7-.8.6-.4-.1-.3-.6-.2-1,.8-5.1,1.5-10.2,2.2-15.3.1-1,.8-1.9,1.8-2.1,3.5-1.2,6.9-2.5,10.4-3.6.8-.2,1.5-.9,1.6-1.7.6-3.8,1.3-7.5,2-11.3.2-.7-.1-1.4-.7-1.7-1.3-.8-2.5-1.6-3.8-2.4-.7-.3-1-1.1-.7-1.7,3.3-11.9,9-23,16.6-32.8,4.6-5.9,10.9-10.1,18-12.2,12.7-3.4,22.7,1.1,28.8,13,3,5.9,4.5,12.4,4.3,19,0,1.3-.5,1.8-1.8,1.9l-9,1c-1.2,0-1.8.6-2.1,1.9-2.1,12.2-3.9,24.4-6.9,36.4-1,4.6-2.7,9.1-4.8,13.4-.9,1.8-2.2,3.3-3.9,4.3-2.3,1.2-4,.5-4.6-2-.8-3.6-.8-7.3,0-10.9,1.1-6.3,3-12.3,3.8-18.6,1-5.8,1.1-11.7.4-17.5-.3-2.4-1.2-4.7-2.7-6.6-2.7-2.9-7.4-3.1-10.3-.4-.5.5-1,1.1-1.4,1.7-.2.6-.2,1.2,0,1.7.6,4.1.7,8.3.4,12.4-.4,5.5-3.2,10.5-7.6,13.6-2,1.4-3.8,3.2-5.7,4.7-.6.5-1,1.3-1.2,2-2.4,9.7-5,19.4-7.4,29.1-1.5,4.6-3.7,8.9-6.3,12.9-.9,1.9-2,3.8-3.2,5.5-2.7,3.7-2.8,8.1-3.6,12.3-.8,4.2-1.3,7.7-1.9,11.5-.4,4.1-3.5,7.3-7.6,8-6,1.5-12.3,1.5-18.4,0-3.9-.8-6.9-4-7.3-8-1-6.3-2.1-12.4-3.2-18.6-.2-.8-.5-1.6-.9-2.4-2.8-4.8-5.5-9.5-8.3-14.4-1.3-2.2-2.2-4.6-2.9-7.1-2.3-9.5-4.8-19-7.1-28.6-.3-1.1-.9-2.2-1.8-2.9-1.9-1.6-3.8-3.2-5.8-4.8-4.1-3.1-6.6-7.9-7-13-.4-3.8-.3-7.7.3-11.5.5-2.6-1-5.2-3.6-6-3.7-1.6-7.9.1-9.5,3.8,0,0,0,.1-.1.1-1.1,2.3-1.7,4.9-1.7,7.4-.2,9.2,1,18.3,3.4,27.2,1.3,4.4,1.8,9,1.7,13.6,0,1.2-.2,2.3-.6,3.5-.2,1.5-1.6,2.6-3.2,2.4-.5-.1-.9-.2-1.3-.5-1.8-1-3.2-2.5-4.1-4.4-2.5-5-4.3-10.4-5.4-15.9-2.7-11.2-4.4-22.6-6.3-33.9,0-1.1-.9-2-2-1.9h0l-9.1-1c-1,0-1.7-.4-1.7-1.6-.5-9.3,2.5-18.4,8.4-25.5,5.4-6.7,14.3-9.6,22.6-7.3,8.7,2.1,16.4,7.2,21.5,14.6,6.3,8.5,11.1,18.1,14.2,28.2q1.3,3.8-2.2,6-2.4,1.5-1.9,4.3c.5,2.8,1.1,6.3,1.6,9.5.1,1,.8,1.9,1.8,2.1,3.5,1.1,6.9,2.4,10.4,3.6.9.2,1.5.9,1.6,1.7.8,5.3,1.6,10.5,2.3,15.9,0,.3.2.7-.2.8-.4.1-.5-.3-.7-.5-1.6-2-3.2-4-4.7-6-.6-.8-1.4-1.3-2.4-1.5-2-.3-4.3-.8-6.9-1.4ZM119.7,128.53c-.3-2.6-.6-5.6-1-8.6,0-.6-.3-1.1-.6-1.6l-5.7-7.5c-.2-.3-.4-.6-.7-.5-.3.2-.3.4-.3.7-.7,3-1,6.1-1,9.2-.1,4,2.5,7.6,6.3,8.8.6.3,1.3.5,1.9.8,1,.6,1.3.1,1.1-1.3ZM209.8,109.82c-2,2.6-3.7,5-5.6,7.2-1,1.1-1.6,2.5-1.7,4-.2,2.1-.5,4.1-.7,6.3q-.3,3.2,2.8,1.9c3.4-1,5.9-3.9,6.3-7.5.4-3.9,0-8-1.1-11.9Z"/>
  <path class="cls-1" d="M57.7,104.82c.6.9,1.1,1.8,1.6,2.8.4,1.2,1.6,1.9,2.9,1.8,1.4,0,2.9.3,4.3.3,1.4.1,1.7.5,1.9,1.8,1.9,15.5,6,30.6,12.3,44.9,2.3,5.6,5.7,10.7,10,15,1.9,2,4.5,3.3,7.3,3.5,1.8.4,3.6-.8,4-2.7.8-2.6,1.2-5.3,1.1-8.1.3-4.2,0-8.5-.8-12.7v-.8c.8,0,.8.8.9,1.2,2.2,6.6,3.3,13.5,3.2,20.4-.3,11.1-7.6,15.6-17.2,15-6.9-.4-13.3-3.5-17.8-8.6l-.4-.4h-.4c1.6,3.1,3.5,6,5.9,8.5,5.5,5.8,12,10.7,19,14.5,20.7,11.9,41.9,22.8,63.3,33.3,1,.5,2.2.5,3.2,0,13.5-5.9,26.6-12.5,39.5-19.4,9.5-5,19-10.3,28.1-15.9,8-4.4,14.9-10.7,20.1-18.2,1-1.5,1.8-3.1,2.4-4.8-2.8,3.7-6.4,6.6-10.6,8.6-5.2,2.5-11.1,3.1-16.7,1.7-5.5-1.3-9.6-6.1-9.9-11.8-.5-7.9.5-15.8,3.2-23.3,0-.4.2-1,1-1.2-.2,1-.3,1.9-.5,2.9-.7,5.5-.7,11,0,16.4.6,5.1,3,6.7,8.3,4.3,2.8-1.5,5.2-3.7,7-6.3,5-7.1,8.9-14.9,11.4-23.2,3.6-10.6,6.1-21.5,7.5-32.5,0-1.3.6-1.9,2-1.9s3.2-.5,4.6-.4,2.8-.9,3.2-2.3c.2-.5.4-1.1,1-1.4.4.4.2.8.2,1.2v14.7c0,13.2-1.7,26.4-4.9,39.2-.8,4.4-1.9,8.8-3.2,13-3.3,8.6-9.1,16.1-16.6,21.5-6.6,4.8-13.6,9.1-20.8,12.9-13.3,7.6-27,14.8-40.8,21.4-5.1,2.5-10.4,4.7-15.6,7.1-.9.5-2,.5-2.9,0-14.4-6.9-28.6-14.3-42.7-21.8-8.2-4.3-16.2-8.7-24.2-13.5-7.3-4-13.7-9.4-19-15.9-3.7-4.8-6.4-10.4-7.9-16.3-1.7-6.1-3.7-12-4.9-18.2-1.5-7.9-2.5-15.9-2.7-24-.3-6.8,0-13.6,0-20.5-.4-.4-.3-1.2.1-1.8Z"/>
  <path class="cls-1" d="M253.2,71.32l-2.9-5c-3.7-6.8-8.3-13.1-13.9-18.5-5.3-5.5-12.5-8.7-20.1-9.1-6.2-.1-12.3,1.5-17.6,4.6-8,4.8-14.8,11.3-20.1,19-5,7-9.4,14.4-13.2,22.2-.2.7-.7,1.4-1.3,1.8-.6-2-1-4-1.3-6.1-.3-1.5-.4-3.2-.9-4.6-.6-2.1-.3-4.3.9-6.1,4-8.6,9.4-16.5,15.9-23.4,7.2-7.6,16.8-12.4,27.1-13.7,8.7-1.1,17.6,1.5,24.3,7.1,10,8.2,17.8,18.7,22.7,30.6.1.2.1.4.2.6.2.2.4.3.2.6Z"/>
  <path class="cls-1" d="M66.4,71.32c1.6-4,3.5-7.9,5.8-11.6,4.3-7.3,9.8-13.8,16.2-19.2,8.8-7.7,21-10.2,32.1-6.7,9.1,2.7,17.1,8,23.2,15.3,5.8,6.8,10.6,14.4,14.2,22.5.4.7.5,1.5.3,2.3-.7,3.7-1.4,7.5-2,11.2,0,.4,0,1-.4,1.1s-.7-.6-.9-1c-4-8.4-8.8-16.4-14.2-23.9-5.4-8-12.7-14.5-21.3-19-12-5.8-23.4-4.9-33.9,3.8-3.2,2.7-6,5.8-8.5,9.1-3.3,4.5-6.3,9.2-9,14.2-.4.9-.9,1.5-1.6,1.9Z"/>
  <path class="cls-1" d="M62.3,72.73v28.6c-.1.8-.8,1.3-1.6,1.3-.7,0-.4-.9-.5-1.3-.5-7.7-.2-15.5-.3-23.2v-25.4c0-6.9,0-13.9.3-20.8,0-1.2.1-2.3.4-3.5.3-3.7,3.5-6.6,7.3-6.3,4.7-.4,9.5-.7,14-1l28.2-1.5c5.8-.3,11.5-.5,17.3-.7,14.7-.4,29.3-.5,44-.3,11.3.2,22.7.6,34,1,9.4.3,18.7.7,28.1,1.2,6.9.1,13.7.7,20.6,1.5,4.1.1,7.3,3.4,7.3,7.5,0,.3,0,.6-.1.8.8,22.2.7,44.4.5,66.9,0,1.4,0,2.8-.2,4.1,0,.5.3,1.3-.4,1.4-.8,0-1.5-.5-1.7-1.2-.1-.6-.1-1.2,0-1.7v-52.3c0-6,0-11.9-.5-17.9-.3-3.2-1.2-4.3-4.3-5-4.3-.8-8.6-1.2-13-1.2-13.7-.7-27.5-1.2-41.3-1.7-5.7-.2-11.5-.4-17.3-.6-14.4-.5-28.9-.5-43.3-.3-15,.2-30.1.8-45.1,1.8-8.1.5-16.3.9-24.4,1.4-1.2,0-2.3.2-3.5.4-2,.2-3.6,1.7-3.9,3.7-.3,1.2-.4,2.4-.4,3.6v40.8h-.2v-.1Z"/>
</svg>