<?xml version="1.0" encoding="UTF-8"?>
<svg id="Camada_1" xmlns="http://www.w3.org/2000/svg" version="1.1" viewBox="0 0 472.9 150">
  <!-- Generator: Adobe Illustrator 29.0.1, SVG Export Plug-In . SVG Version: 2.1.0 Build 192)  -->
  <defs>
    <style>
      .st0 {
        fill: #fff;
      }
    </style>
  </defs>
  <path class="st0" d="M93.5,75l-39.6,74h-10.8L3.5,75,42.9,1h11.2L14.7,75l33.7,63.5,33.7-63.5-19.6-37,5.7-10.5,25.3,47.5h0ZM76.6,1h-11.3L26,75l25.3,47.5,5.5-10.5-19.6-37L70.9,11.4l33.7,63.6-39.4,74h11.4l39.2-74L76.6,1Z"/>
  <g>
    <path class="st0" d="M146.4,101.2v-50.8h24.4c5.8,0,10.1,1.5,12.8,4.6s4.1,7.2,4.1,12.4-.9,6.4-2.6,8.8-4.2,4.3-7.5,5.4c.8.7,1.5,1.4,2,2.2s1,1.8,1.5,3.2l6.1,14.2h-11l-6-13.6c-.5-1.2-1.1-2-1.7-2.4s-1.7-.7-3.1-.7h-8.4v16.8h-10.6ZM157,75.6h11c2.8,0,5-.6,6.5-1.8,1.6-1.2,2.4-3.3,2.4-6.3s-.7-4.9-2-6.2c-1.4-1.3-3.4-2-6.2-2h-11.7v16.3h0Z"/>
    <path class="st0" d="M195.1,101.2v-50.8h36.4v8.3h-25.8v13h22.9v8.2h-22.9v13.1h25.8v8.2h-36.4Z"/>
    <path class="st0" d="M238.9,101.2v-50.8h9.2l24,33.8v-33.8h10.6v50.8h-9.2l-24-33.8v33.8h-10.6Z"/>
    <path class="st0" d="M290.2,101.2l19.4-50.8h11.7l19.3,50.8h-11l-4.9-12.2h-18.7l-4.7,12.2h-11.1ZM307.6,80.8h15.5l-7.8-20.4-7.7,20.4Z"/>
    <path class="st0" d="M366.7,102c-7,0-12.5-1.7-16.6-5.1s-6.1-8.3-6.1-14.8v-31.7h10.6v30.9c0,3.9,1,6.8,3.1,8.7s5.1,2.9,8.9,2.9,6.8-1,8.9-2.9,3.1-4.8,3.1-8.7v-30.9h10.6v31.7c0,6.5-2,11.4-6.1,14.8s-9.4,5.1-16.4,5.1h0Z"/>
    <path class="st0" d="M397.9,101.2v-50.8h10.6v42.6h25v8.2h-35.6Z"/>
    <path class="st0" d="M442.3,101.2v-42.6h-15.6v-8.2h41.8v8.2h-15.5v42.6h-10.7Z"/>
  </g>
</svg>