<?xml version="1.0" encoding="UTF-8"?>
<svg id="Camada_1" xmlns="http://www.w3.org/2000/svg" viewBox="0 0 180.4 180.5">
  <defs>
    <style>
      .cls-1 {
        fill: #fff;
      }
    </style>
  </defs>
  <path class="cls-1" d="M90.2,172.2c-44.9,0-81.8-37-81.8-81.9,0-10.1,1.8-19.7,5.2-28.7l47.8,96.2c.5,1.3,1.4,2.4,2.9,2.4s2.3-1.1,2.9-2.4l22-49.3c.2-.5.5-1.1,1.1-1.1s.7.5,1.1,1.1l22,49.3c.5,1.3,1.4,2.4,2.9,2.4s2.3-1.1,2.9-2.4l47.8-96.2c3.4,9,5.2,18.6,5.2,28.7-.2,44.9-37,81.9-82,81.9h0ZM90.2,71.7c-.5,0-.7-.5-1.1-1.1L63.5,12.8c8.3-3.1,17.3-4.7,26.7-4.7s18.4,1.6,26.7,4.7l-25.6,57.8c-.3.7-.5,1.1-1.1,1.1h0ZM64.1,131c-.5,0-.7-.5-1.1-1.1L21.5,46.2c7.4-11.4,17.3-20.9,29.4-27.6l30,66.6c.4,1.1,1.3,1.4,2.2,1.4h14.4c1.1,0,1.8-.2,2.3-1.4l30-66.6c11.9,6.7,22,16.2,29.4,27.6l-41.9,83.8c-.2.5-.5,1.1-1.1,1.1s-.7-.5-1.1-1.1l-15.6-35.8c-.5-1.3-1.3-1.4-2.3-1.4h-14.5c-1.1,0-1.8.2-2.3,1.4l-15.2,35.8c-.2.5-.6,1-1.1,1h0ZM90.2,180.5c50,0,90.2-40.2,90.2-90.2S140.2,0,90.2,0,0,40.2,0,90.2s40.2,90.3,90.2,90.3Z"/>
</svg>