<?xml version="1.0" encoding="utf-8"?>
<!-- Generator: Adobe Illustrator 20.1.0, SVG Export Plug-In . SVG Version: 6.00 Build 0)  -->
<svg version="1.1" id="Layer_1" xmlns="http://www.w3.org/2000/svg" xmlns:xlink="http://www.w3.org/1999/xlink" x="0px" y="0px"
	 viewBox="0 0 1000 1000" style="enable-background:new 0 0 1000 1000;" xml:space="preserve">
<style type="text/css">
	.st0{fill:#FFFFFF;}
</style>
<path class="st0" d="M451.2,538h121.2v-40.4h-13.2c0,15.6-11.2,26.8-28.8,26.8H512V464h20v-13.6h-80.8V464h20.4v60.4h-20.4V538z
	 M630.8,538H678l40.4-74h20v-13.6H678V464h17.6L666,518l-29.2-54H658v-13.6h-88V464h20L630.8,538z M209.6,450.4H122V464h20l40.8,74
	H230l40-74h20v-13.6h-60.4V464h17.6L218,518l-29.6-54h21.2L209.6,450.4z M302,494.4c0,25.6,20.8,46.4,62.4,46.4s62-20.4,62-46.4
	c0-25.6-21.6-45.6-62.4-45.6C323.6,448.4,302,468.8,302,494.4z M385.6,494.4c-0.4,16-6.8,32.4-22,32c-14.8-0.4-21.2-16.8-21.2-32.8
	c0.4-16.8,8.4-31.6,22.4-31.2C378.8,462.4,386,477.6,385.6,494.4L385.6,494.4z M750,494.4c0,25.6,20.8,46.4,62.4,46.4
	c41.6,0,62-20.4,62-46.4c0-25.6-21.6-45.6-62.4-45.6C771.6,448.4,750,468.8,750,494.4z M812.8,462.4c14,0.4,21.2,15.2,20.8,32
	c-0.4,16-6.8,32.4-22,32c-14.8-0.4-21.2-16.8-21.2-32.8C790.8,476.8,798.8,462,812.8,462.4L812.8,462.4z"/>
<path class="st0" d="M911.6,216l-50.8,50.8C904.4,334,929.6,414,929.6,500c0,237.2-192.4,429.6-429.6,429.6S70.4,737.2,70.4,500
	S262.8,70.4,500,70.4c86.4,0,166.4,25.6,233.6,69.2l50.8-50.8C704,32.8,605.6,0,500,0C224,0,0,224,0,500s224,500,500,500
	s500-224,500-500C1000,394.4,967.2,296.4,911.6,216z"/>
<path class="st0" d="M751.6,19.6v14c30.4,16.4,58.8,36,85.2,57.6l-71.2,71.2c26.8,21.2,51.2,45.2,72.4,72l71.2-71.2
	c22,26.4,41.2,55.2,57.6,84.8h13.6V19.6H751.6z"/>
</svg>
